<svg width="83" height="74" viewBox="0 0 83 74" fill="none" xmlns="http://www.w3.org/2000/svg">
<path d="M29.5814 14.3749L33.4136 14.3749L46.3691 43.9451L42.537 43.9451L29.5814 14.3749Z" fill="#EB6440"/>
<mask id="path-2-outside-1_215_6250" maskUnits="userSpaceOnUse" x="0" y="0.0112305" width="83" height="74" fill="black">
<rect fill="white" y="0.0112305" width="83" height="74"/>
<path fill-rule="evenodd" clip-rule="evenodd" d="M75.5475 3.01123L79 3.01123L59.9464 43.9889H59.8627L59.8701 44.0069L56.038 44.0069L51.3925 32.7631L33.9422 71.7901H33.8585L33.866 71.8082L30.0338 71.8082L25.434 60.6751L20.8343 71.8082H17.0021L17.0277 71.7463H16.9555L4 42.1761L7.83215 42.1761L18.8526 67.3295L23.4799 56.1296L23.556 56.1296L27.312 56.1296L27.3882 56.1296L32.0583 67.4329L49.5433 28.3283L49.5603 28.3283L53.3754 28.3283H53.3924L58.1174 39.7647L75.5475 3.01123Z"/>
</mask>
<path fill-rule="evenodd" clip-rule="evenodd" d="M75.5475 3.01123L79 3.01123L59.9464 43.9889H59.8627L59.8701 44.0069L56.038 44.0069L51.3925 32.7631L33.9422 71.7901H33.8585L33.866 71.8082L30.0338 71.8082L25.434 60.6751L20.8343 71.8082H17.0021L17.0277 71.7463H16.9555L4 42.1761L7.83215 42.1761L18.8526 67.3295L23.4799 56.1296L23.556 56.1296L27.312 56.1296L27.3882 56.1296L32.0583 67.4329L49.5433 28.3283L49.5603 28.3283L53.3754 28.3283H53.3924L58.1174 39.7647L75.5475 3.01123Z" fill="black"/>
<path d="M79 3.01123L80.9171 3.90262L82.3146 0.897066L79 0.897066V3.01123ZM75.5475 3.01123V0.897065L74.2102 0.897065L73.6372 2.10532L75.5475 3.01123ZM59.9464 43.9889V46.103H61.2948L61.8634 44.8803L59.9464 43.9889ZM59.8627 43.9889V41.8747H56.7017L57.9087 44.7962L59.8627 43.9889ZM59.8701 44.0069L59.8701 46.1211L63.0311 46.1211L61.8241 43.1997L59.8701 44.0069ZM56.038 44.0069L54.084 44.8142L54.624 46.1211H56.038L56.038 44.0069ZM51.3925 32.7631L53.3465 31.9558L51.4692 27.4121L49.4625 31.9001L51.3925 32.7631ZM33.9422 71.7901V73.9043H35.3127L35.8722 72.6531L33.9422 71.7901ZM33.8585 71.7901V69.676H30.6976L31.9045 72.5974L33.8585 71.7901ZM33.866 71.8082V73.9224H37.0268L35.82 71.001L33.866 71.8082ZM30.0338 71.8082L28.0798 72.6155L28.6198 73.9224H30.0338V71.8082ZM25.434 60.6751L27.388 59.8678L25.434 55.1385L23.4801 59.8678L25.434 60.6751ZM20.8343 71.8082V73.9224H22.2483L22.7883 72.6155L20.8343 71.8082ZM17.0021 71.8082L15.0482 71.0009L13.8411 73.9224H17.0021V71.8082ZM17.0277 71.7463L18.9817 72.5536L20.1887 69.6322H17.0277V71.7463ZM16.9555 71.7463L15.019 72.5947L15.5736 73.8605H16.9555V71.7463ZM4 42.1761L4 40.062L0.765552 40.062L2.06354 43.0245L4 42.1761ZM7.83215 42.1761L9.76861 41.3277L9.21405 40.062H7.83215L7.83215 42.1761ZM18.8526 67.3295L16.9161 68.1779L18.9096 72.728L20.8065 68.1368L18.8526 67.3295ZM23.4799 56.1296L23.4802 54.0154L22.066 54.0152L21.5259 55.3223L23.4799 56.1296ZM23.556 56.1296L23.5557 58.2438H23.556L23.556 56.1296ZM27.312 56.1296L27.3123 54.0154H27.312L27.312 56.1296ZM27.3882 56.1296L29.3422 55.3223L28.8023 54.0156L27.3884 54.0155L27.3882 56.1296ZM32.0583 67.4329L30.1043 68.2402L31.9816 72.7839L33.9883 68.2959L32.0583 67.4329ZM49.5433 28.3283L49.5454 26.2142L48.1734 26.2128L47.6133 27.4654L49.5433 28.3283ZM49.5603 28.3283L49.5581 30.4425H49.5603V28.3283ZM53.3754 28.3284V30.4425V28.3284ZM53.3924 28.3284L55.3463 27.5211L54.8064 26.2142H53.3924V28.3284ZM58.1174 39.7647L56.1635 40.572L57.9844 44.9793L60.0277 40.6707L58.1174 39.7647ZM79 0.897066L75.5475 0.897065V5.1254L79 5.1254V0.897066ZM61.8634 44.8803L80.9171 3.90262L77.0829 2.11984L58.0293 43.0975L61.8634 44.8803ZM59.8627 46.103H59.9464V41.8747H59.8627V46.103ZM61.8241 43.1997L61.8167 43.1816L57.9087 44.7962L57.9162 44.8142L61.8241 43.1997ZM56.038 46.1211L59.8701 46.1211L59.8702 41.8928L56.038 41.8928L56.038 46.1211ZM49.4385 33.5704L54.084 44.8142L57.9919 43.1996L53.3465 31.9558L49.4385 33.5704ZM35.8722 72.6531L53.3225 33.626L49.4625 31.9001L32.0122 70.9272L35.8722 72.6531ZM33.8585 73.9043H33.9422V69.676H33.8585V73.9043ZM35.82 71.001L35.8125 70.9829L31.9045 72.5974L31.912 72.6154L35.82 71.001ZM30.0338 73.9224H33.866V69.694H30.0338V73.9224ZM23.4801 61.4824L28.0798 72.6155L31.9878 71.0009L27.388 59.8678L23.4801 61.4824ZM22.7883 72.6155L27.388 61.4824L23.4801 59.8678L18.8803 71.0009L22.7883 72.6155ZM17.0021 73.9224H20.8343V69.694H17.0021V73.9224ZM15.0737 70.939L15.0482 71.0009L18.9561 72.6155L18.9817 72.5536L15.0737 70.939ZM17.0277 69.6322H16.9555V73.8605H17.0277V69.6322ZM18.892 70.8979L5.93646 41.3277L2.06354 43.0245L15.019 72.5947L18.892 70.8979ZM4 44.2903L7.83215 44.2903L7.83215 40.062L4 40.062L4 44.2903ZM5.89569 43.0245L16.9161 68.1779L20.789 66.4811L9.76861 41.3277L5.89569 43.0245ZM21.5259 55.3223L16.8986 66.5222L20.8065 68.1368L25.4339 56.9369L21.5259 55.3223ZM23.5563 54.0155L23.4802 54.0154L23.4796 58.2438L23.5557 58.2438L23.5563 54.0155ZM27.312 54.0154L23.556 54.0155L23.556 58.2438L27.3121 58.2438L27.312 54.0154ZM27.3884 54.0155L27.3123 54.0155L27.3118 58.2438L27.388 58.2438L27.3884 54.0155ZM34.0122 66.6256L29.3422 55.3223L25.4342 56.9369L30.1043 68.2402L34.0122 66.6256ZM47.6133 27.4654L30.1283 66.57L33.9883 68.2959L51.4733 29.1913L47.6133 27.4654ZM49.5624 26.2142L49.5454 26.2142L49.5412 30.4425L49.5581 30.4425L49.5624 26.2142ZM53.3754 26.2142L49.5603 26.2142V30.4425L53.3754 30.4425V26.2142ZM53.3924 26.2142H53.3754V30.4425H53.3924V26.2142ZM60.0714 38.9574L55.3463 27.5211L51.4384 29.1356L56.1635 40.572L60.0714 38.9574ZM73.6372 2.10532L56.2072 38.8588L60.0277 40.6707L77.4577 3.91714L73.6372 2.10532Z" fill="#93BFCF" mask="url(#path-2-outside-1_215_6250)"/>
</svg>
