<svg width="0" height="0" class="hidden">
  <!-- arrow icon -->
  <symbol viewBox="0 0 20 11" xmlns="http://www.w3.org/2000/svg" id="arrow-icon">
    <path d="M18.834 2.83325L11.1673 10.4999C11.0007 10.6666 10.8201 10.7844 10.6257 10.8533C10.4312 10.9233 10.2229 10.9583 10.0007 10.9583C9.77843 10.9583 9.5701 10.9233 9.37565 10.8533C9.18121 10.7844 9.00065 10.6666 8.83398 10.4999L1.16732 2.83325C0.861761 2.5277 0.708984 2.13881 0.708984 1.66659C0.708984 1.19436 0.861761 0.805475 1.16732 0.49992C1.47287 0.194364 1.86176 0.0415849 2.33398 0.0415849C2.80621 0.0415849 3.1951 0.194363 3.50065 0.49992L10.0007 6.99992L16.5006 0.499919C16.8062 0.194363 17.1951 0.0415842 17.6673 0.0415842C18.1395 0.0415842 18.5284 0.194363 18.834 0.499919C19.1395 0.805474 19.2923 1.19436 19.2923 1.66659C19.2923 2.13881 19.1395 2.5277 18.834 2.83325Z" fill="currentColor"/>
  </symbol>
  
  <!-- dashboard icon -->
  <symbol viewBox="0 0 30 30" xmlns="http://www.w3.org/2000/svg" id="dashboard-icon">
    <path d="M5 13.75C4.64583 13.75 4.34917 13.63 4.11 13.39C3.87 13.1508 3.75 12.8542 3.75 12.5V5C3.75 4.64583 3.87 4.34875 4.11 4.10875C4.34917 3.86958 4.64583 3.75 5 3.75H12.5C12.8542 3.75 13.1513 3.86958 13.3913 4.10875C13.6304 4.34875 13.75 4.64583 13.75 5V12.5C13.75 12.8542 13.6304 13.1508 13.3913 13.39C13.1513 13.63 12.8542 13.75 12.5 13.75H5ZM17.5 13.75C17.1458 13.75 16.8492 13.63 16.61 13.39C16.37 13.1508 16.25 12.8542 16.25 12.5V5C16.25 4.64583 16.37 4.34875 16.61 4.10875C16.8492 3.86958 17.1458 3.75 17.5 3.75H25C25.3542 3.75 25.6508 3.86958 25.89 4.10875C26.13 4.34875 26.25 4.64583 26.25 5V12.5C26.25 12.8542 26.13 13.1508 25.89 13.39C25.6508 13.63 25.3542 13.75 25 13.75H17.5ZM5 26.25C4.64583 26.25 4.34917 26.13 4.11 25.89C3.87 25.6508 3.75 25.3542 3.75 25V17.5C3.75 17.1458 3.87 16.8487 4.11 16.6087C4.34917 16.3696 4.64583 16.25 5 16.25H12.5C12.8542 16.25 13.1513 16.3696 13.3913 16.6087C13.6304 16.8487 13.75 17.1458 13.75 17.5V25C13.75 25.3542 13.6304 25.6508 13.3913 25.89C13.1513 26.13 12.8542 26.25 12.5 26.25H5ZM21.25 26.25C20.8958 26.25 20.5992 26.13 20.36 25.89C20.12 25.6508 20 25.3542 20 25V22.5H17.4688C17.1146 22.5 16.8229 22.38 16.5937 22.14C16.3646 21.9008 16.25 21.6042 16.25 21.25C16.25 20.8958 16.37 20.5992 16.61 20.36C16.8492 20.12 17.1458 20 17.5 20H20V17.4688C20 17.1146 20.12 16.8229 20.36 16.5937C20.5992 16.3646 20.8958 16.25 21.25 16.25C21.6042 16.25 21.9008 16.3696 22.14 16.6087C22.38 16.8487 22.5 17.1458 22.5 17.5V20H25.0312C25.3854 20 25.6771 20.12 25.9063 20.36C26.1354 20.5992 26.25 20.8958 26.25 21.25C26.25 21.6042 26.13 21.9008 25.89 22.14C25.6508 22.38 25.3542 22.5 25 22.5H22.5V25.0312C22.5 25.3854 22.38 25.6771 22.14 25.9063C21.9008 26.1354 21.6042 26.25 21.25 26.25Z" fill="currentColor"/>
  </symbol>

  <!-- settings icon -->
  <symbol viewBox="0 0 30 30" xmlns="http://www.w3.org/2000/svg" id="settings-icon">
    <path d="M16.6176 2.73771e-06C17.0586 2.73771e-06 17.4531 0.274503 17.6016 0.685503L18.6606 3.621C19.0401 3.7155 19.3656 3.81 19.6416 3.909C19.9431 4.017 20.3316 4.1805 20.8116 4.404L23.2776 3.099C23.4788 2.99236 23.7093 2.95387 23.9343 2.9893C24.1593 3.02473 24.3668 3.13217 24.5256 3.2955L26.6946 5.538C26.9826 5.8365 27.0636 6.273 26.9016 6.654L25.7451 9.3645C25.9371 9.717 26.0901 10.0185 26.2071 10.2705C26.3331 10.545 26.4891 10.923 26.6751 11.4105L29.3706 12.5655C29.7756 12.738 30.0261 13.143 29.9991 13.5765L29.8011 16.689C29.7875 16.8912 29.7149 17.085 29.5923 17.2463C29.4696 17.4076 29.3023 17.5294 29.1111 17.5965L26.5581 18.504C26.4846 18.8565 26.4081 19.158 26.3271 19.413C26.1964 19.8068 26.0472 20.1943 25.8801 20.574L27.1626 23.409C27.2531 23.6082 27.2774 23.8311 27.2321 24.0452C27.1867 24.2592 27.0741 24.4531 26.9106 24.5985L24.4716 26.7765C24.3109 26.9193 24.1105 27.0097 23.8971 27.0354C23.6837 27.0611 23.4675 27.0211 23.2776 26.9205L20.7636 25.5885C20.3702 25.7968 19.9645 25.9806 19.5486 26.139L18.4506 26.55L17.4756 29.25C17.4033 29.4477 17.273 29.619 17.1016 29.7413C16.9303 29.8637 16.726 29.9314 16.5156 29.9355L13.6656 30C13.4495 30.0057 13.237 29.9442 13.0573 29.8242C12.8776 29.7041 12.7395 29.5313 12.6621 29.3295L11.5131 26.289C11.121 26.155 10.7329 26.01 10.3491 25.854C10.0351 25.7181 9.72594 25.5715 9.42205 25.4145L6.57205 26.6325C6.38426 26.7126 6.17723 26.7364 5.97616 26.701C5.77509 26.6656 5.58866 26.5725 5.43955 26.433L3.33055 24.4545C3.17353 24.3078 3.0666 24.1155 3.02488 23.9048C2.98315 23.694 3.00875 23.4754 3.09805 23.28L4.32355 20.61C4.16057 20.2938 4.00946 19.9715 3.87055 19.644C3.7084 19.2431 3.55834 18.8374 3.42055 18.4275L0.735551 17.61C0.517302 17.544 0.326943 17.4079 0.194036 17.2226C0.0611289 17.0373 -0.00688695 16.8134 0.000551204 16.5855L0.105551 13.704C0.113025 13.516 0.171756 13.3336 0.275393 13.1766C0.37903 13.0195 0.523629 12.8938 0.693551 12.813L3.51055 11.46C3.64105 10.9815 3.75505 10.6095 3.85555 10.338C3.99706 9.97537 4.15421 9.61904 4.32655 9.27L3.10555 6.69C3.01289 6.49408 2.98475 6.27381 3.02518 6.06088C3.06561 5.84795 3.17253 5.65333 3.33055 5.505L5.43655 3.516C5.58418 3.37676 5.76891 3.28315 5.96849 3.24642C6.16808 3.2097 6.37403 3.23143 6.56155 3.309L9.40855 4.485C9.72355 4.275 10.0086 4.1055 10.2666 3.969C10.5741 3.8055 10.9851 3.6345 11.5026 3.45L12.4926 0.688503C12.5657 0.486405 12.6995 0.311825 12.8756 0.188599C13.0518 0.065374 13.2616 -0.000489376 13.4766 2.73771e-06H16.6176ZM15.0366 10.5285C12.5361 10.5285 10.5096 12.531 10.5096 15.003C10.5096 17.475 12.5361 19.479 15.0366 19.479C17.5356 19.479 19.5621 17.475 19.5621 15.003C19.5621 12.531 17.5371 10.5285 15.0366 10.5285Z" fill="currentColor"/>
  </symbol>    

  <!-- support icon -->
  <symbol viewBox="0 0 30 30" xmlns="http://www.w3.org/2000/svg" id="support-icon">
    <path d="M15 27.5L14.6875 23.75H14.375C11.4167 23.75 8.90625 22.7187 6.84375 20.6562C4.78125 18.5937 3.75 16.0833 3.75 13.125C3.75 10.1667 4.78125 7.65625 6.84375 5.59375C8.90625 3.53125 11.4167 2.5 14.375 2.5C15.8542 2.5 17.2342 2.77583 18.515 3.3275C19.7967 3.88 20.9221 4.64042 21.8913 5.60875C22.8596 6.57792 23.6196 7.70292 24.1712 8.98375C24.7237 10.2654 25 11.6458 25 13.125C25 14.6875 24.745 16.1875 24.235 17.625C23.7242 19.0625 23.0262 20.3958 22.1412 21.625C21.2554 22.8542 20.2033 23.9688 18.985 24.9688C17.7658 25.9688 16.4375 26.8125 15 27.5ZM14.3438 19.9688C14.6979 19.9688 15 19.8438 15.25 19.5938C15.5 19.3438 15.625 19.0417 15.625 18.6875C15.625 18.3333 15.5 18.0313 15.25 17.7813C15 17.5313 14.6979 17.4063 14.3438 17.4063C13.9896 17.4063 13.6875 17.5313 13.4375 17.7813C13.1875 18.0313 13.0625 18.3333 13.0625 18.6875C13.0625 19.0417 13.1875 19.3438 13.4375 19.5938C13.6875 19.8438 13.9896 19.9688 14.3438 19.9688ZM13.4375 16H15.3125C15.3125 15.375 15.375 14.9375 15.5 14.6875C15.625 14.4375 16.0208 13.9792 16.6875 13.3125C17.0625 12.9375 17.375 12.5313 17.625 12.0938C17.875 11.6563 18 11.1875 18 10.6875C18 9.625 17.6408 8.82792 16.9225 8.29625C16.2033 7.76542 15.3542 7.5 14.375 7.5C13.4583 7.5 12.6875 7.755 12.0625 8.265C11.4375 8.77583 11 9.39583 10.75 10.125L12.5 10.8125C12.6042 10.4583 12.8021 10.1092 13.0938 9.765C13.3854 9.42167 13.8125 9.25 14.375 9.25C14.9375 9.25 15.3596 9.40625 15.6412 9.71875C15.9221 10.0313 16.0625 10.375 16.0625 10.75C16.0625 11.1042 15.9583 11.4217 15.75 11.7025C15.5417 11.9842 15.2917 12.2708 15 12.5625C14.2708 13.1875 13.8283 13.6821 13.6725 14.0463C13.5158 14.4113 13.4375 15.0625 13.4375 16Z" fill="currentColor"/>
  </symbol>    

  <!-- logout icon -->
  <symbol viewBox="0 0 30 30" xmlns="http://www.w3.org/2000/svg" id="logout-icon">
    <path fill-rule="evenodd" clip-rule="evenodd" d="M12.6705 2.26898C13.2304 2.10102 13.8218 2.06627 14.3975 2.16751C14.9732 2.26876 15.5173 2.50318 15.9863 2.85207C16.4553 3.20097 16.8363 3.65467 17.0987 4.17697C17.3612 4.69926 17.498 5.27569 17.498 5.86023V24.1402C17.498 24.7248 17.3612 25.3012 17.0987 25.8235C16.8363 26.3458 16.4553 26.7995 15.9863 27.1484C15.5173 27.4973 14.9732 27.7317 14.3975 27.8329C13.8218 27.9342 13.2304 27.8994 12.6705 27.7315L5.17055 25.4815C4.39817 25.2498 3.72106 24.7753 3.23965 24.1284C2.75824 23.4815 2.49818 22.6966 2.49805 21.8902V8.11022C2.49818 7.30385 2.75824 6.51899 3.23965 5.87208C3.72106 5.22517 4.39817 4.75067 5.17055 4.51898L12.6705 2.26898ZM18.748 5.00023C18.748 4.6687 18.8797 4.35076 19.1142 4.11634C19.3486 3.88192 19.6665 3.75023 19.998 3.75023H23.748C24.7426 3.75023 25.6964 4.14531 26.3997 4.84857C27.103 5.55184 27.498 6.50566 27.498 7.50023V8.75023C27.498 9.08175 27.3664 9.39969 27.1319 9.63411C26.8975 9.86853 26.5796 10.0002 26.248 10.0002C25.9165 10.0002 25.5986 9.86853 25.3642 9.63411C25.1297 9.39969 24.998 9.08175 24.998 8.75023V7.50023C24.998 7.1687 24.8664 6.85076 24.6319 6.61634C24.3975 6.38192 24.0796 6.25023 23.748 6.25023H19.998C19.6665 6.25023 19.3486 6.11853 19.1142 5.88411C18.8797 5.64969 18.748 5.33175 18.748 5.00023ZM26.248 20.0002C26.5796 20.0002 26.8975 20.1319 27.1319 20.3663C27.3664 20.6008 27.498 20.9187 27.498 21.2502V22.5002C27.498 23.4948 27.103 24.4486 26.3997 25.1519C25.6964 25.8551 24.7426 26.2502 23.748 26.2502H19.998C19.6665 26.2502 19.3486 26.1185 19.1142 25.8841C18.8797 25.6497 18.748 25.3317 18.748 25.0002C18.748 24.6687 18.8797 24.3508 19.1142 24.1163C19.3486 23.8819 19.6665 23.7502 19.998 23.7502H23.748C24.0796 23.7502 24.3975 23.6185 24.6319 23.3841C24.8664 23.1497 24.998 22.8317 24.998 22.5002V21.2502C24.998 20.9187 25.1297 20.6008 25.3642 20.3663C25.5986 20.1319 25.9165 20.0002 26.248 20.0002ZM11.248 13.7502C10.9165 13.7502 10.5986 13.8819 10.3642 14.1163C10.1297 14.3508 9.99805 14.6687 9.99805 15.0002C9.99805 15.3317 10.1297 15.6497 10.3642 15.8841C10.5986 16.1185 10.9165 16.2502 11.248 16.2502H11.2493C11.5808 16.2502 11.8988 16.1185 12.1332 15.8841C12.3676 15.6497 12.4993 15.3317 12.4993 15.0002C12.4993 14.6687 12.3676 14.3508 12.1332 14.1163C11.8988 13.8819 11.5808 13.7502 11.2493 13.7502H11.248Z" fill="currentColor"/>
    <path d="M19.998 15.0002H26.248M26.248 15.0002L23.748 12.5002M26.248 15.0002L23.748 17.5002" stroke="currentColor" stroke-width="2.5" stroke-linecap="round" stroke-linejoin="round"/>
  </symbol>    

  <!-- example icon -->
  <!-- <symbol viewBox="0 0 24 24" xmlns="http://www.w3.org/2000/svg" id="example-icon">
  </symbol>     -->

  <!-- example icon -->
  <!-- <symbol viewBox="0 0 24 24" xmlns="http://www.w3.org/2000/svg" id="example-icon">
  </symbol>     -->
</svg>
