<svg width="0" height="0" class="hidden">
  <!-- arrow icon -->
  <symbol viewBox="0 0 20 11" xmlns="http://www.w3.org/2000/svg" id="arrow-icon">
    <path d="M18.834 2.83325L11.1673 10.4999C11.0007 10.6666 10.8201 10.7844 10.6257 10.8533C10.4312 10.9233 10.2229 10.9583 10.0007 10.9583C9.77843 10.9583 9.5701 10.9233 9.37565 10.8533C9.18121 10.7844 9.00065 10.6666 8.83398 10.4999L1.16732 2.83325C0.861761 2.5277 0.708984 2.13881 0.708984 1.66659C0.708984 1.19436 0.861761 0.805475 1.16732 0.49992C1.47287 0.194364 1.86176 0.0415849 2.33398 0.0415849C2.80621 0.0415849 3.1951 0.194363 3.50065 0.49992L10.0007 6.99992L16.5006 0.499919C16.8062 0.194363 17.1951 0.0415842 17.6673 0.0415842C18.1395 0.0415842 18.5284 0.194363 18.834 0.499919C19.1395 0.805474 19.2923 1.19436 19.2923 1.66659C19.2923 2.13881 19.1395 2.5277 18.834 2.83325Z" fill="currentColor"/>
  </symbol>
  
  <!-- example icon -->
  <symbol viewBox="0 0 24 24" xmlns="http://www.w3.org/2000/svg" id="example-icon">
  </symbol>    
</svg>
