<svg width="650" height="485" viewBox="0 0 650 485" fill="none" xmlns="http://www.w3.org/2000/svg">
<path d="M650 426.12H0V426.445H650V426.12Z" fill="#EBEBEB"/>
<path d="M584.87 447.037H541.814V447.362H584.87V447.037Z" fill="#EBEBEB"/>
<path d="M430.586 450.573H419.289V450.898H430.586V450.573Z" fill="#EBEBEB"/>
<path d="M540.514 434.973H515.567V435.298H540.514V434.973Z" fill="#EBEBEB"/>
<path d="M124.345 437.157H68.1982V437.482H124.345V437.157Z" fill="#EBEBEB"/>
<path d="M144.157 437.157H135.928V437.482H144.157V437.157Z" fill="#EBEBEB"/>
<path d="M292.695 442.643H170.911V442.968H292.695V442.643Z" fill="#EBEBEB"/>
<path d="M308.1 368.14H57.0829C55.1164 368.137 53.2317 367.353 51.8424 365.961C50.4531 364.57 49.6728 362.683 49.6729 360.717V7.858C49.69 5.90283 50.4778 4.03337 51.8652 2.65568C53.2527 1.278 55.1276 0.503349 57.0829 0.5H308.1C310.069 0.5 311.957 1.28206 313.349 2.67415C314.741 4.06623 315.523 5.9543 315.523 7.923V360.717C315.523 362.686 314.741 364.574 313.349 365.966C311.957 367.358 310.069 368.14 308.1 368.14ZM57.0829 0.760001C55.2026 0.763445 53.4005 1.51278 52.0722 2.84354C50.7439 4.1743 49.9978 5.97774 49.9979 7.858V360.717C49.9978 362.597 50.7439 364.401 52.0722 365.731C53.4005 367.062 55.2026 367.812 57.0829 367.815H308.1C309.981 367.812 311.785 367.063 313.115 365.732C314.446 364.402 315.194 362.598 315.198 360.717V7.858C315.194 5.97655 314.446 4.17314 313.115 2.84275C311.785 1.51236 309.981 0.763437 308.1 0.760001H57.0829Z" fill="#EBEBEB"/>
<path d="M589.303 368.14H338.273C336.305 368.137 334.419 367.353 333.028 365.962C331.636 364.571 330.853 362.685 330.85 360.717V7.858C330.87 5.90165 331.661 4.0322 333.05 2.65487C334.44 1.27754 336.316 0.503313 338.273 0.5H589.303C591.256 0.506766 593.127 1.28292 594.512 2.66025C595.896 4.03757 596.683 5.90508 596.7 7.858V360.717C596.7 362.681 595.921 364.565 594.535 365.957C593.148 367.348 591.267 368.133 589.303 368.14ZM338.273 0.760001C336.391 0.763437 334.588 1.51236 333.257 2.84275C331.927 4.17314 331.178 5.97655 331.175 7.858V360.717C331.178 362.598 331.927 364.402 333.257 365.732C334.588 367.063 336.391 367.812 338.273 367.815H589.303C591.184 367.812 592.987 367.063 594.318 365.732C595.648 364.402 596.397 362.598 596.401 360.717V7.858C596.397 5.97655 595.648 4.17314 594.318 2.84275C592.987 1.51236 591.184 0.763437 589.303 0.760001H338.273Z" fill="#EBEBEB"/>
<path d="M351.988 424.716H527.878V166.822H351.988V424.716Z" fill="#F0F0F0"/>
<path d="M358.202 222.579L521.664 222.579V174.947L358.202 174.947V222.579Z" fill="#E0E0E0"/>
<path d="M512.382 222.579H521.664V182.656H512.382V222.579Z" fill="#EBEBEB"/>
<path d="M467.48 222.579H476.762V182.656H467.48V222.579Z" fill="#EBEBEB"/>
<path d="M409.735 220.988L418.882 222.564L425.663 183.222L416.516 181.645L409.735 220.988Z" fill="#EBEBEB"/>
<path d="M500.877 222.579H510.159V187.921H500.877V222.579Z" fill="#EBEBEB"/>
<path d="M479.531 222.579H488.813V187.921H479.531V222.579Z" fill="#EBEBEB"/>
<path d="M425.659 222.579H434.941V187.921H425.659V222.579Z" fill="#EBEBEB"/>
<path d="M447.786 220.551L456.847 222.564L464.366 188.732L455.305 186.718L447.786 220.551Z" fill="#EBEBEB"/>
<path d="M492.843 222.579H497.484V180.68H492.843V222.579Z" fill="#EBEBEB"/>
<path d="M437.619 222.579H442.26V180.68H437.619V222.579Z" fill="#EBEBEB"/>
<path d="M521.664 230.119H358.202V277.751H521.664V230.119Z" fill="#E0E0E0"/>
<path d="M367.484 237.828H358.202V277.751H367.484V237.828Z" fill="#EBEBEB"/>
<path d="M412.386 237.828H403.104V277.751H412.386V237.828Z" fill="#EBEBEB"/>
<path d="M463.372 236.809L454.225 238.386L461.006 277.729L470.153 276.152L463.372 236.809Z" fill="#EBEBEB"/>
<path d="M378.989 243.093H369.707V277.751H378.989V243.093Z" fill="#EBEBEB"/>
<path d="M400.335 243.093H391.053V277.751H400.335V243.093Z" fill="#EBEBEB"/>
<path d="M454.207 243.093H444.925V277.751H454.207V243.093Z" fill="#EBEBEB"/>
<path d="M424.603 241.876L415.542 243.89L423.061 277.722L432.122 275.708L424.603 241.876Z" fill="#EBEBEB"/>
<path d="M387.023 235.852H382.382V277.751H387.023V235.852Z" fill="#EBEBEB"/>
<path d="M442.247 235.852H437.606V277.751H442.247V235.852Z" fill="#EBEBEB"/>
<path d="M512.382 277.751H521.664V237.828H512.382V277.751Z" fill="#EBEBEB"/>
<path d="M500.877 277.751H510.159V243.093H500.877V277.751Z" fill="#EBEBEB"/>
<path d="M479.531 277.751H488.813V243.093H479.531V277.751Z" fill="#EBEBEB"/>
<path d="M492.843 277.751H497.484V235.852H492.843V277.751Z" fill="#EBEBEB"/>
<path d="M358.202 332.923H521.664V285.291H358.202V332.923Z" fill="#E0E0E0"/>
<path d="M418.561 332.923H427.843V293H418.561V332.923Z" fill="#EBEBEB"/>
<path d="M360.818 331.326L369.965 332.903L376.746 293.56L367.599 291.983L360.818 331.326Z" fill="#EBEBEB"/>
<path d="M451.958 332.923H461.24V298.265H451.958V332.923Z" fill="#EBEBEB"/>
<path d="M430.612 332.923H439.894V298.265H430.612V332.923Z" fill="#EBEBEB"/>
<path d="M376.74 332.923H386.022V298.265H376.74V332.923Z" fill="#EBEBEB"/>
<path d="M398.865 330.889L407.926 332.903L415.445 299.07L406.384 297.056L398.865 330.889Z" fill="#EBEBEB"/>
<path d="M443.924 332.923H448.565V291.024H443.924V332.923Z" fill="#EBEBEB"/>
<path d="M388.7 332.923H393.341V291.024H388.7V332.923Z" fill="#EBEBEB"/>
<path d="M467.658 331.329L476.805 332.905L483.586 293.562L474.439 291.986L467.658 331.329Z" fill="#EBEBEB"/>
<path d="M483.574 332.923H492.856V298.265H483.574V332.923Z" fill="#EBEBEB"/>
<path d="M505.709 330.893L514.77 332.907L522.289 299.074L513.228 297.06L505.709 330.893Z" fill="#EBEBEB"/>
<path d="M495.521 332.923H500.162V291.024H495.521V332.923Z" fill="#EBEBEB"/>
<path d="M558.22 166.835H527.878V425.392H558.22V166.835Z" fill="#E0E0E0"/>
<path d="M135.746 111.312C135.746 111.312 134.225 101.276 141.544 94.8281C148.863 88.3801 148.226 84.5581 146.133 84.0641C144.04 83.5701 142.116 90.0051 138.892 91.7731C138.892 91.7731 138.788 82.5951 142.064 79.2151C145.34 75.8351 147.043 67.1251 143.936 66.9691C140.829 66.8131 140.504 72.1691 139.854 75.9131C139.204 79.6571 135.746 85.0131 135.746 85.0131C135.746 85.0131 135.07 76.7971 132.951 73.4171C130.832 70.0371 136.474 62.3021 134.251 58.9221C132.028 55.5421 128.219 61.9901 128.531 69.2311C128.843 76.4721 133.731 84.2071 132.561 91.7731C132.561 91.7731 130.429 86.4561 128.518 85.9751C126.607 85.4941 124.618 81.9711 123.318 80.6711C122.018 79.3711 120.419 83.8821 123.318 88.0681C126.217 92.2541 133.627 103.447 132.496 112.508L135.746 111.312Z" fill="#E6E6E6"/>
<path d="M140.127 106.749L142.519 121.803C142.694 122.896 142.63 124.013 142.33 125.079C142.031 126.144 141.504 127.132 140.786 127.973C140.068 128.815 139.176 129.491 138.171 129.954C137.166 130.417 136.072 130.657 134.966 130.656H132.366C131.258 130.659 130.163 130.421 129.157 129.958C128.15 129.496 127.256 128.82 126.537 127.978C125.817 127.136 125.289 126.148 124.989 125.082C124.689 124.015 124.625 122.897 124.8 121.803L127.192 106.749H140.127Z" fill="#E6E6E6"/>
<path d="M103.831 133.815L273.403 133.815V125.105L103.831 125.105V133.815Z" fill="#E0E0E0"/>
<path d="M258.128 125.105H265.603V92.995H258.128V125.105Z" fill="#EBEBEB"/>
<path d="M222.014 125.105H229.489V92.995H222.014V125.105Z" fill="#EBEBEB"/>
<path d="M175.539 123.835L182.906 125.105L188.36 93.4619L180.994 92.1921L175.539 123.835Z" fill="#EBEBEB"/>
<path d="M248.872 125.105H256.347V97.22H248.872V125.105Z" fill="#EBEBEB"/>
<path d="M231.699 125.105H239.174V97.22H231.699V125.105Z" fill="#EBEBEB"/>
<path d="M188.357 125.105H195.832V97.22H188.357V125.105Z" fill="#EBEBEB"/>
<path d="M206.155 123.469L213.452 125.09L219.502 97.8695L212.205 96.2478L206.155 123.469Z" fill="#EBEBEB"/>
<path d="M242.424 125.092H246.155V91.383H242.424V125.092Z" fill="#EBEBEB"/>
<path d="M197.99 125.092H201.721V91.383H197.99V125.092Z" fill="#EBEBEB"/>
<path d="M273.416 190.144H103.844V198.854H273.416V190.144Z" fill="#E0E0E0"/>
<path d="M119.119 158.034H111.644V190.144H119.119V158.034Z" fill="#EBEBEB"/>
<path d="M155.246 158.034H147.771V190.144H155.246V158.034Z" fill="#EBEBEB"/>
<path d="M196.26 157.225L188.894 158.495L194.348 190.138L201.714 188.868L196.26 157.225Z" fill="#EBEBEB"/>
<path d="M128.375 162.259H120.9V190.144H128.375V162.259Z" fill="#EBEBEB"/>
<path d="M145.548 162.259H138.073V190.144H145.548V162.259Z" fill="#EBEBEB"/>
<path d="M188.89 162.259H181.415V190.144H188.89V162.259Z" fill="#EBEBEB"/>
<path d="M165.069 161.285L157.772 162.906L163.822 190.127L171.119 188.505L165.069 161.285Z" fill="#EBEBEB"/>
<path d="M134.823 156.435H131.092V190.144H134.823V156.435Z" fill="#EBEBEB"/>
<path d="M179.257 156.435H175.526V190.144H179.257V156.435Z" fill="#EBEBEB"/>
<path d="M257.14 164.729H220.74V189.858H257.14V164.729Z" fill="#EBEBEB"/>
<path d="M449.371 111.078C463.393 111.078 474.76 99.711 474.76 85.689C474.76 71.6671 463.393 60.3 449.371 60.3C435.349 60.3 423.982 71.6671 423.982 85.689C423.982 99.711 435.349 111.078 449.371 111.078Z" fill="#E0E0E0"/>
<path d="M449.371 107.282C461.297 107.282 470.964 97.6144 470.964 85.6889C470.964 73.7635 461.297 64.0959 449.371 64.0959C437.446 64.0959 427.778 73.7635 427.778 85.6889C427.778 97.6144 437.446 107.282 449.371 107.282Z" fill="#F0F0F0"/>
<path d="M448.357 70.8821V85.9751L438.347 80.3071" fill="#F0F0F0"/>
<path d="M448.357 87.275C448.134 87.2716 447.915 87.2136 447.72 87.106L437.71 81.438C437.411 81.2687 437.19 80.9875 437.098 80.6561C437.005 80.3247 437.048 79.9701 437.216 79.67C437.3 79.52 437.413 79.388 437.548 79.2819C437.683 79.1757 437.838 79.0973 438.004 79.0514C438.169 79.0055 438.342 78.9928 438.513 79.0142C438.683 79.0356 438.848 79.0906 438.997 79.176L447.057 83.739V70.882C447.057 70.5372 447.194 70.2066 447.438 69.9628C447.682 69.719 448.012 69.582 448.357 69.582C448.702 69.582 449.033 69.719 449.276 69.9628C449.52 70.2066 449.657 70.5372 449.657 70.882V85.975C449.657 86.3198 449.52 86.6505 449.276 86.8943C449.033 87.1381 448.702 87.275 448.357 87.275Z" fill="#E0E0E0"/>
<path d="M325 484.828C464.207 484.828 577.057 478.239 577.057 470.112C577.057 461.985 464.207 455.396 325 455.396C185.793 455.396 72.9429 461.985 72.9429 470.112C72.9429 478.239 185.793 484.828 325 484.828Z" fill="#F5F5F5"/>
<path d="M549.263 94.9839H290.537V339.956H549.263V94.9839Z" fill="#EB6440"/>
<path opacity="0.7" d="M549.263 94.9839H290.537V339.956H549.263V94.9839Z" fill="white"/>
<path d="M549.263 94.9839H290.537V107.451H549.263V94.9839Z" fill="#EB6440"/>
<path opacity="0.2" d="M549.263 107.464H540.709V340.19H549.263V107.464Z" fill="black"/>
<path opacity="0.6" d="M545.467 112.976H544.687C543.481 112.976 542.503 113.954 542.503 115.16V143.214C542.503 144.42 543.481 145.398 544.687 145.398H545.467C546.673 145.398 547.651 144.42 547.651 143.214V115.16C547.651 113.954 546.673 112.976 545.467 112.976Z" fill="white"/>
<path opacity="0.2" d="M535.054 268.3H295.854C295.683 268.297 295.519 268.227 295.398 268.106C295.277 267.985 295.207 267.821 295.204 267.65C295.204 267.478 295.273 267.312 295.394 267.19C295.516 267.068 295.682 267 295.854 267H535.054C535.226 267 535.392 267.068 535.514 267.19C535.636 267.312 535.704 267.478 535.704 267.65C535.704 267.822 535.636 267.988 535.514 268.11C535.392 268.232 535.226 268.3 535.054 268.3Z" fill="black"/>
<path opacity="0.2" d="M535.054 212.4H295.854C295.683 212.397 295.519 212.327 295.398 212.206C295.277 212.085 295.207 211.921 295.204 211.75C295.204 211.577 295.273 211.412 295.394 211.29C295.516 211.168 295.682 211.1 295.854 211.1H535.054C535.226 211.1 535.392 211.168 535.514 211.29C535.636 211.412 535.704 211.577 535.704 211.75C535.704 211.922 535.636 212.088 535.514 212.209C535.392 212.331 535.226 212.4 535.054 212.4Z" fill="black"/>
<path d="M535.067 112.963H295.919V149.532H535.067V112.963Z" fill="#EB6440"/>
<path opacity="0.6" d="M546.286 101.224C546.286 101.843 546.103 102.449 545.758 102.964C545.414 103.48 544.925 103.881 544.352 104.118C543.78 104.355 543.15 104.417 542.542 104.297C541.935 104.176 541.376 103.877 540.938 103.439C540.5 103.001 540.202 102.443 540.081 101.835C539.96 101.227 540.022 100.597 540.259 100.025C540.496 99.4524 540.898 98.9631 541.413 98.6188C541.928 98.2746 542.534 98.0908 543.153 98.0908C543.984 98.0908 544.781 98.4209 545.369 99.0085C545.956 99.596 546.286 100.393 546.286 101.224Z" fill="white"/>
<path opacity="0.6" d="M535.236 101.224C535.236 101.843 535.052 102.449 534.708 102.964C534.363 103.48 533.874 103.881 533.302 104.118C532.729 104.355 532.099 104.417 531.492 104.297C530.884 104.176 530.325 103.877 529.887 103.439C529.449 103.001 529.151 102.443 529.03 101.835C528.909 101.227 528.971 100.597 529.208 100.025C529.445 99.4524 529.847 98.9631 530.362 98.6188C530.877 98.2746 531.483 98.0908 532.103 98.0908C532.934 98.0908 533.731 98.4209 534.318 99.0085C534.906 99.596 535.236 100.393 535.236 101.224Z" fill="white"/>
<path opacity="0.6" d="M524.186 101.224C524.186 101.843 524.002 102.449 523.658 102.964C523.314 103.48 522.824 103.881 522.252 104.118C521.679 104.355 521.049 104.417 520.442 104.297C519.834 104.176 519.276 103.877 518.838 103.439C518.399 103.001 518.101 102.443 517.98 101.835C517.859 101.227 517.921 100.597 518.158 100.025C518.396 99.4524 518.797 98.9631 519.312 98.6188C519.828 98.2746 520.433 98.0908 521.053 98.0908C521.884 98.0908 522.681 98.4209 523.268 99.0085C523.856 99.596 524.186 100.393 524.186 101.224Z" fill="white"/>
<path opacity="0.4" d="M306.163 174.024C304.648 174.024 303.168 173.575 301.909 172.734C300.65 171.892 299.668 170.696 299.089 169.297C298.509 167.898 298.358 166.358 298.653 164.873C298.948 163.388 299.678 162.024 300.749 160.953C301.819 159.882 303.184 159.153 304.669 158.857C306.154 158.562 307.694 158.713 309.093 159.293C310.492 159.872 311.688 160.854 312.529 162.113C313.371 163.372 313.82 164.853 313.82 166.367C313.816 168.397 313.009 170.342 311.573 171.777C310.138 173.213 308.193 174.021 306.163 174.024Z" fill="black"/>
<path d="M307.099 163.455V169.266H305.799V164.534H304.642V163.455H307.099Z" fill="white"/>
<path opacity="0.4" d="M524.719 158.944H321.022C320.204 158.944 319.54 159.607 319.54 160.426V161.349C319.54 162.167 320.204 162.831 321.022 162.831H524.719C525.538 162.831 526.201 162.167 526.201 161.349V160.426C526.201 159.607 525.538 158.944 524.719 158.944Z" fill="black"/>
<path opacity="0.4" d="M524.719 169.045H321.022C320.204 169.045 319.54 169.708 319.54 170.527V171.45C319.54 172.268 320.204 172.932 321.022 172.932H524.719C525.538 172.932 526.201 172.268 526.201 171.45V170.527C526.201 169.708 525.538 169.045 524.719 169.045Z" fill="black"/>
<path opacity="0.4" d="M454.259 179.133H321.022C320.204 179.133 319.54 179.796 319.54 180.615V181.538C319.54 182.356 320.204 183.02 321.022 183.02H454.259C455.077 183.02 455.741 182.356 455.741 181.538V180.615C455.741 179.796 455.077 179.133 454.259 179.133Z" fill="black"/>
<path opacity="0.2" d="M323.102 202.052C325.062 202.052 326.651 200.463 326.651 198.503C326.651 196.543 325.062 194.954 323.102 194.954C321.142 194.954 319.553 196.543 319.553 198.503C319.553 200.463 321.142 202.052 323.102 202.052Z" fill="black"/>
<path d="M325.546 198.503C325.548 198.99 325.406 199.467 325.137 199.873C324.868 200.279 324.485 200.596 324.035 200.783C323.586 200.971 323.091 201.021 322.613 200.926C322.135 200.832 321.696 200.598 321.351 200.253C321.007 199.909 320.773 199.47 320.678 198.992C320.584 198.514 320.634 198.019 320.821 197.57C321.009 197.12 321.326 196.737 321.732 196.468C322.138 196.199 322.615 196.056 323.102 196.059C323.75 196.059 324.372 196.316 324.83 196.775C325.288 197.233 325.546 197.855 325.546 198.503Z" fill="white"/>
<path opacity="0.4" d="M369.096 196.566H334.698C333.879 196.566 333.216 197.229 333.216 198.048V198.971C333.216 199.789 333.879 200.453 334.698 200.453H369.096C369.914 200.453 370.578 199.789 370.578 198.971V198.048C370.578 197.229 369.914 196.566 369.096 196.566Z" fill="black"/>
<path opacity="0.2" d="M398.762 198.425C398.762 199.127 398.554 199.813 398.164 200.397C397.774 200.98 397.22 201.435 396.571 201.704C395.923 201.972 395.209 202.043 394.521 201.906C393.832 201.769 393.2 201.431 392.704 200.934C392.207 200.438 391.869 199.806 391.732 199.117C391.595 198.429 391.666 197.715 391.934 197.067C392.203 196.418 392.658 195.864 393.241 195.474C393.825 195.084 394.511 194.876 395.213 194.876C396.154 194.876 397.057 195.25 397.723 195.915C398.388 196.581 398.762 197.484 398.762 198.425Z" fill="black"/>
<path d="M397.67 198.425C397.672 198.911 397.531 199.388 397.262 199.794C396.994 200.199 396.611 200.516 396.162 200.704C395.713 200.892 395.219 200.943 394.742 200.849C394.264 200.756 393.825 200.523 393.48 200.18C393.135 199.837 392.9 199.399 392.804 198.922C392.708 198.445 392.756 197.95 392.942 197.501C393.127 197.051 393.442 196.667 393.846 196.396C394.251 196.125 394.726 195.981 395.213 195.981C395.862 195.981 396.485 196.238 396.946 196.696C397.406 197.154 397.666 197.776 397.67 198.425Z" fill="#EB6440"/>
<path opacity="0.4" d="M441.233 196.488H406.822C406.003 196.488 405.34 197.151 405.34 197.97V198.893C405.34 199.711 406.003 200.375 406.822 200.375H441.233C442.051 200.375 442.715 199.711 442.715 198.893V197.97C442.715 197.151 442.051 196.488 441.233 196.488Z" fill="black"/>
<path opacity="0.2" d="M470.886 198.347C470.886 199.049 470.678 199.735 470.288 200.319C469.898 200.902 469.344 201.357 468.695 201.626C468.047 201.894 467.333 201.965 466.645 201.828C465.956 201.691 465.324 201.353 464.828 200.856C464.331 200.36 463.993 199.728 463.856 199.039C463.719 198.351 463.79 197.637 464.058 196.989C464.327 196.34 464.782 195.786 465.365 195.396C465.949 195.006 466.635 194.798 467.337 194.798C468.278 194.798 469.181 195.172 469.847 195.837C470.512 196.503 470.886 197.406 470.886 198.347Z" fill="black"/>
<path d="M469.794 198.347C469.794 198.833 469.65 199.308 469.38 199.712C469.11 200.116 468.726 200.431 468.277 200.617C467.828 200.803 467.334 200.851 466.858 200.757C466.381 200.662 465.943 200.428 465.6 200.084C465.256 199.741 465.022 199.303 464.927 198.826C464.832 198.35 464.881 197.856 465.067 197.407C465.253 196.958 465.568 196.574 465.972 196.304C466.376 196.034 466.851 195.89 467.337 195.89C467.989 195.89 468.613 196.149 469.074 196.61C469.535 197.07 469.794 197.695 469.794 198.347Z" fill="white"/>
<path opacity="0.4" d="M513.344 196.397H478.946C478.127 196.397 477.464 197.06 477.464 197.879V198.802C477.464 199.62 478.127 200.284 478.946 200.284H513.344C514.162 200.284 514.826 199.62 514.826 198.802V197.879C514.826 197.06 514.162 196.397 513.344 196.397Z" fill="black"/>
<path opacity="0.4" d="M306.163 238.79C310.392 238.79 313.82 235.362 313.82 231.133C313.82 226.904 310.392 223.476 306.163 223.476C301.934 223.476 298.506 226.904 298.506 231.133C298.506 235.362 301.934 238.79 306.163 238.79Z" fill="black"/>
<path d="M308.373 232.992V234.084H303.992V233.2L306.228 231.081C306.748 230.587 306.839 230.288 306.839 230.015C306.839 229.742 306.527 229.287 305.903 229.287C305.671 229.279 305.441 229.328 305.232 229.43C305.024 229.532 304.844 229.684 304.707 229.872L303.732 229.235C303.998 228.88 304.347 228.596 304.748 228.408C305.15 228.22 305.591 228.133 306.033 228.156C307.333 228.156 308.191 228.819 308.191 229.872C308.184 230.232 308.092 230.586 307.922 230.905C307.753 231.223 307.511 231.497 307.216 231.705L305.916 233.005L308.373 232.992Z" fill="white"/>
<path opacity="0.4" d="M524.719 223.749H321.022C320.204 223.749 319.54 224.412 319.54 225.231V226.154C319.54 226.972 320.204 227.636 321.022 227.636H524.719C525.538 227.636 526.201 226.972 526.201 226.154V225.231C526.201 224.412 525.538 223.749 524.719 223.749Z" fill="black"/>
<path opacity="0.4" d="M359.736 233.837H321.022C320.204 233.837 319.54 234.5 319.54 235.319V236.242C319.54 237.06 320.204 237.724 321.022 237.724H359.736C360.555 237.724 361.218 237.06 361.218 236.242V235.319C361.218 234.5 360.555 233.837 359.736 233.837Z" fill="black"/>
<path opacity="0.2" d="M323.102 256.6C325.062 256.6 326.651 255.011 326.651 253.051C326.651 251.091 325.062 249.502 323.102 249.502C321.142 249.502 319.553 251.091 319.553 253.051C319.553 255.011 321.142 256.6 323.102 256.6Z" fill="black"/>
<path d="M323.103 255.508C324.459 255.508 325.56 254.408 325.56 253.051C325.56 251.694 324.459 250.594 323.103 250.594C321.746 250.594 320.646 251.694 320.646 253.051C320.646 254.408 321.746 255.508 323.103 255.508Z" fill="white"/>
<path opacity="0.4" d="M369.096 251.114H334.698C333.879 251.114 333.216 251.777 333.216 252.596V253.519C333.216 254.337 333.879 255.001 334.698 255.001H369.096C369.914 255.001 370.578 254.337 370.578 253.519V252.596C370.578 251.777 369.914 251.114 369.096 251.114Z" fill="black"/>
<path opacity="0.2" d="M395.213 256.522C397.173 256.522 398.762 254.933 398.762 252.973C398.762 251.013 397.173 249.424 395.213 249.424C393.253 249.424 391.664 251.013 391.664 252.973C391.664 254.933 393.253 256.522 395.213 256.522Z" fill="black"/>
<path d="M395.213 255.43C396.57 255.43 397.67 254.33 397.67 252.973C397.67 251.616 396.57 250.516 395.213 250.516C393.856 250.516 392.756 251.616 392.756 252.973C392.756 254.33 393.856 255.43 395.213 255.43Z" fill="white"/>
<path opacity="0.4" d="M441.233 251.023H406.822C406.003 251.023 405.34 251.686 405.34 252.505V253.428C405.34 254.246 406.003 254.91 406.822 254.91H441.233C442.051 254.91 442.715 254.246 442.715 253.428V252.505C442.715 251.686 442.051 251.023 441.233 251.023Z" fill="black"/>
<path opacity="0.2" d="M470.886 252.895C470.886 253.597 470.678 254.283 470.288 254.867C469.898 255.45 469.344 255.905 468.695 256.174C468.047 256.442 467.333 256.513 466.645 256.376C465.956 256.239 465.324 255.901 464.828 255.404C464.331 254.908 463.993 254.276 463.856 253.587C463.719 252.899 463.79 252.185 464.058 251.537C464.327 250.888 464.782 250.334 465.365 249.944C465.949 249.554 466.635 249.346 467.337 249.346C468.278 249.346 469.181 249.72 469.847 250.385C470.512 251.051 470.886 251.954 470.886 252.895Z" fill="black"/>
<path d="M469.794 252.895C469.794 253.381 469.65 253.856 469.38 254.26C469.11 254.664 468.726 254.979 468.277 255.165C467.828 255.351 467.334 255.4 466.858 255.305C466.381 255.21 465.943 254.976 465.6 254.632C465.256 254.289 465.022 253.851 464.927 253.374C464.832 252.898 464.881 252.404 465.067 251.955C465.253 251.506 465.568 251.122 465.972 250.852C466.376 250.582 466.851 250.438 467.337 250.438C467.989 250.438 468.613 250.697 469.074 251.158C469.535 251.618 469.794 252.243 469.794 252.895Z" fill="#EB6440"/>
<path opacity="0.4" d="M513.344 250.945H478.946C478.127 250.945 477.464 251.608 477.464 252.427V253.35C477.464 254.168 478.127 254.832 478.946 254.832H513.344C514.162 254.832 514.826 254.168 514.826 253.35V252.427C514.826 251.608 514.162 250.945 513.344 250.945Z" fill="black"/>
<path opacity="0.4" d="M306.163 295.028C304.648 295.028 303.168 294.579 301.909 293.737C300.65 292.896 299.668 291.7 299.089 290.301C298.509 288.902 298.358 287.362 298.653 285.877C298.948 284.392 299.678 283.027 300.749 281.957C301.819 280.886 303.184 280.156 304.669 279.861C306.154 279.566 307.694 279.717 309.093 280.297C310.492 280.876 311.688 281.858 312.529 283.117C313.371 284.376 313.82 285.856 313.82 287.371C313.82 289.402 313.013 291.349 311.577 292.785C310.141 294.221 308.194 295.028 306.163 295.028Z" fill="black"/>
<path d="M308.321 288.45C308.321 289.425 307.567 290.322 305.916 290.322C305.133 290.34 304.363 290.123 303.706 289.698L304.226 288.671C304.709 289.011 305.286 289.192 305.877 289.191C306.553 289.191 306.969 288.918 306.969 288.45C306.969 287.982 306.644 287.735 305.877 287.735H305.266V286.851L306.462 285.551H303.992V284.472H308.1V285.343L306.8 286.838C307.209 286.867 307.593 287.049 307.875 287.348C308.156 287.646 308.316 288.04 308.321 288.45Z" fill="white"/>
<path opacity="0.4" d="M524.719 279.935H321.022C320.204 279.935 319.54 280.598 319.54 281.417V282.34C319.54 283.158 320.204 283.822 321.022 283.822H524.719C525.538 283.822 526.201 283.158 526.201 282.34V281.417C526.201 280.598 525.538 279.935 524.719 279.935Z" fill="black"/>
<path opacity="0.4" d="M524.719 290.023H321.022C320.204 290.023 319.54 290.686 319.54 291.505V292.428C319.54 293.246 320.204 293.91 321.022 293.91H524.719C525.538 293.91 526.201 293.246 526.201 292.428V291.505C526.201 290.686 525.538 290.023 524.719 290.023Z" fill="black"/>
<path opacity="0.4" d="M423.059 300.124H321.022C320.204 300.124 319.54 300.788 319.54 301.606V302.529C319.54 303.347 320.204 304.011 321.022 304.011H423.059C423.878 304.011 424.541 303.347 424.541 302.529V301.606C424.541 300.788 423.878 300.124 423.059 300.124Z" fill="black"/>
<path opacity="0.4" d="M398.242 316.192H392.184C391.897 316.192 391.664 316.425 391.664 316.712V322.77C391.664 323.057 391.897 323.29 392.184 323.29H398.242C398.529 323.29 398.762 323.057 398.762 322.77V316.712C398.762 316.425 398.529 316.192 398.242 316.192Z" fill="black"/>
<path d="M397.917 322.445V317.05H392.522V322.445H397.917Z" fill="white"/>
<path opacity="0.4" d="M441.233 317.804H406.822C406.003 317.804 405.34 318.467 405.34 319.286V320.209C405.34 321.027 406.003 321.691 406.822 321.691H441.233C442.051 321.691 442.715 321.027 442.715 320.209V319.286C442.715 318.467 442.051 317.804 441.233 317.804Z" fill="black"/>
<path d="M394.927 321.301C394.886 321.302 394.845 321.294 394.807 321.278C394.769 321.263 394.734 321.24 394.706 321.21L393.406 319.988C393.345 319.925 393.312 319.841 393.312 319.754C393.312 319.667 393.345 319.583 393.406 319.52C393.436 319.488 393.472 319.463 393.513 319.446C393.553 319.429 393.596 319.42 393.64 319.42C393.683 319.42 393.727 319.429 393.767 319.446C393.807 319.463 393.843 319.488 393.874 319.52L394.979 320.521L396.864 318.285C396.919 318.218 396.998 318.175 397.085 318.167C397.172 318.158 397.258 318.184 397.325 318.239C397.392 318.295 397.435 318.374 397.443 318.461C397.452 318.547 397.426 318.634 397.371 318.701L395.2 321.184C395.142 321.248 395.064 321.289 394.979 321.301H394.927Z" fill="#EB6440"/>
<path opacity="0.4" d="M470.366 316.114H464.308C464.021 316.114 463.788 316.347 463.788 316.634V322.692C463.788 322.979 464.021 323.212 464.308 323.212H470.366C470.653 323.212 470.886 322.979 470.886 322.692V316.634C470.886 316.347 470.653 316.114 470.366 316.114Z" fill="black"/>
<path d="M470.028 322.367V316.972H464.633V322.367H470.028Z" fill="white"/>
<path opacity="0.4" d="M513.344 317.713H478.946C478.127 317.713 477.464 318.376 477.464 319.195V320.118C477.464 320.936 478.127 321.6 478.946 321.6H513.344C514.162 321.6 514.826 320.936 514.826 320.118V319.195C514.826 318.376 514.162 317.713 513.344 317.713Z" fill="black"/>
<path d="M467.051 321.223C466.969 321.218 466.892 321.186 466.83 321.132L465.53 319.897C465.492 319.87 465.461 319.835 465.437 319.795C465.414 319.755 465.4 319.71 465.395 319.664C465.391 319.618 465.396 319.571 465.411 319.527C465.426 319.483 465.45 319.443 465.482 319.409C465.514 319.375 465.553 319.349 465.596 319.331C465.639 319.314 465.685 319.305 465.732 319.307C465.778 319.309 465.824 319.321 465.865 319.342C465.907 319.363 465.943 319.393 465.972 319.429L467.064 320.43L468.962 318.194C468.988 318.156 469.021 318.123 469.059 318.099C469.098 318.075 469.142 318.059 469.187 318.052C469.232 318.046 469.278 318.049 469.322 318.061C469.366 318.074 469.407 318.096 469.442 318.125C469.477 318.155 469.506 318.191 469.526 318.233C469.546 318.274 469.557 318.319 469.558 318.364C469.559 318.41 469.551 318.456 469.533 318.498C469.516 318.54 469.49 318.579 469.456 318.61L467.35 321.106C467.287 321.17 467.205 321.211 467.116 321.223H467.051Z" fill="#EB6440"/>
<path opacity="0.4" d="M326.118 316.27H320.06C319.773 316.27 319.54 316.503 319.54 316.79V322.848C319.54 323.135 319.773 323.368 320.06 323.368H326.118C326.405 323.368 326.638 323.135 326.638 322.848V316.79C326.638 316.503 326.405 316.27 326.118 316.27Z" fill="black"/>
<path d="M325.793 322.523V317.128H320.398V322.523H325.793Z" fill="white"/>
<path opacity="0.4" d="M369.096 317.882H334.698C333.879 317.882 333.216 318.545 333.216 319.364V320.287C333.216 321.105 333.879 321.769 334.698 321.769H369.096C369.914 321.769 370.578 321.105 370.578 320.287V319.364C370.578 318.545 369.914 317.882 369.096 317.882Z" fill="black"/>
<path d="M307.385 130.084C307.328 129.088 307.571 128.099 308.083 127.243C308.594 126.387 309.351 125.704 310.255 125.284C311.159 124.863 312.169 124.723 313.153 124.883C314.137 125.043 315.051 125.494 315.776 126.179C316.5 126.864 317.003 127.751 317.218 128.724C317.433 129.698 317.351 130.714 316.982 131.64C316.613 132.567 315.974 133.361 315.148 133.92C314.323 134.479 313.348 134.778 312.351 134.777C311.712 134.814 311.073 134.72 310.471 134.501C309.87 134.282 309.32 133.942 308.855 133.503C308.39 133.063 308.019 132.533 307.767 131.945C307.514 131.357 307.384 130.724 307.385 130.084ZM315.185 130.084C315.175 129.523 314.999 128.978 314.68 128.517C314.361 128.055 313.913 127.698 313.392 127.491C312.871 127.283 312.3 127.234 311.752 127.35C311.203 127.466 310.7 127.741 310.307 128.141C309.914 128.541 309.648 129.048 309.543 129.599C309.437 130.15 309.496 130.72 309.713 131.237C309.93 131.754 310.295 132.196 310.762 132.506C311.229 132.817 311.777 132.983 312.338 132.983C312.72 132.994 313.1 132.926 313.455 132.784C313.809 132.642 314.131 132.428 314.399 132.156C314.667 131.884 314.877 131.559 315.014 131.203C315.152 130.847 315.214 130.466 315.198 130.084H315.185Z" fill="white"/>
<path d="M325.884 130.63V134.621H323.869V130.942C323.869 129.811 323.349 129.291 322.452 129.291C321.555 129.291 320.775 129.889 320.775 131.176V134.621H318.76V127.64H320.684V128.459C320.983 128.152 321.344 127.911 321.743 127.752C322.141 127.593 322.569 127.519 322.998 127.536C323.402 127.509 323.807 127.572 324.184 127.721C324.56 127.87 324.899 128.101 325.175 128.398C325.452 128.694 325.659 129.048 325.781 129.434C325.904 129.82 325.939 130.228 325.884 130.63Z" fill="white"/>
<path d="M327.717 125.001H329.732V134.621H327.717V125.001Z" fill="white"/>
<path d="M331.37 125.547C331.373 125.384 331.409 125.224 331.478 125.077C331.546 124.929 331.645 124.798 331.768 124.691C331.89 124.584 332.034 124.505 332.19 124.457C332.345 124.41 332.509 124.396 332.67 124.416C332.829 124.392 332.991 124.402 333.146 124.445C333.3 124.489 333.444 124.565 333.567 124.668C333.69 124.771 333.789 124.9 333.859 125.044C333.929 125.189 333.966 125.347 333.97 125.508C333.895 125.783 333.732 126.026 333.505 126.2C333.278 126.373 333.001 126.467 332.716 126.467C332.43 126.467 332.153 126.373 331.926 126.2C331.699 126.026 331.536 125.783 331.461 125.508L331.37 125.547ZM331.617 127.64H333.645V134.621H331.617V127.64Z" fill="white"/>
<path d="M342.654 130.63V134.621H340.6V130.942C340.6 129.811 340.08 129.291 339.183 129.291C338.286 129.291 337.519 129.889 337.519 131.176V134.621H335.491V127.64H337.428V128.459C337.725 128.151 338.083 127.91 338.48 127.751C338.876 127.592 339.302 127.519 339.729 127.536C340.136 127.505 340.544 127.566 340.925 127.713C341.305 127.86 341.648 128.09 341.928 128.387C342.208 128.683 342.419 129.038 342.544 129.426C342.67 129.814 342.708 130.225 342.654 130.63Z" fill="white"/>
<path d="M351.351 131.709H346.073C346.181 132.142 346.442 132.521 346.807 132.777C347.173 133.033 347.619 133.148 348.062 133.1C348.384 133.112 348.706 133.059 349.007 132.945C349.308 132.832 349.584 132.659 349.817 132.437L350.896 133.594C350.527 133.982 350.077 134.284 349.579 134.479C349.08 134.675 348.545 134.759 348.01 134.725C347.509 134.774 347.002 134.717 346.524 134.559C346.045 134.402 345.604 134.146 345.23 133.808C344.856 133.471 344.556 133.059 344.35 132.599C344.144 132.139 344.036 131.641 344.032 131.137C344.027 130.651 344.12 130.17 344.307 129.721C344.494 129.273 344.771 128.868 345.121 128.531C345.47 128.194 345.885 127.931 346.339 127.76C346.794 127.589 347.278 127.513 347.763 127.536C348.246 127.512 348.729 127.589 349.18 127.763C349.631 127.936 350.04 128.203 350.382 128.544C350.724 128.886 350.99 129.296 351.164 129.747C351.337 130.198 351.415 130.68 351.39 131.163C351.39 131.319 351.364 131.54 351.351 131.709ZM346.047 130.526H349.479C349.409 130.122 349.198 129.756 348.884 129.492C348.57 129.228 348.173 129.084 347.763 129.084C347.353 129.084 346.957 129.228 346.643 129.492C346.329 129.756 346.118 130.122 346.047 130.526Z" fill="white"/>
<path d="M358.423 127.25H355.524V125.547H363.428V127.25H360.529V134.621H358.423V127.25Z" fill="white"/>
<path d="M370.5 131.709H365.222C365.329 132.142 365.59 132.521 365.956 132.777C366.321 133.033 366.767 133.147 367.211 133.1C367.533 133.112 367.854 133.059 368.155 132.945C368.457 132.832 368.732 132.659 368.966 132.437L370.045 133.594C369.676 133.982 369.226 134.284 368.727 134.479C368.229 134.675 367.693 134.758 367.159 134.725C366.657 134.774 366.151 134.717 365.672 134.559C365.193 134.402 364.753 134.146 364.379 133.808C364.004 133.471 363.704 133.059 363.498 132.599C363.292 132.139 363.184 131.641 363.181 131.137C363.175 130.652 363.268 130.172 363.455 129.725C363.641 129.277 363.917 128.873 364.265 128.536C364.613 128.199 365.026 127.936 365.479 127.764C365.932 127.592 366.415 127.515 366.899 127.536C367.383 127.51 367.867 127.586 368.319 127.758C368.772 127.931 369.183 128.197 369.526 128.539C369.869 128.881 370.137 129.291 370.311 129.743C370.486 130.195 370.563 130.679 370.539 131.163C370.5 131.319 370.5 131.54 370.5 131.709ZM365.196 130.526H368.628C368.557 130.122 368.347 129.756 368.033 129.492C367.719 129.228 367.322 129.084 366.912 129.084C366.502 129.084 366.105 129.228 365.791 129.492C365.477 129.756 365.267 130.122 365.196 130.526Z" fill="white"/>
<path d="M371.202 133.971L371.878 132.528C372.617 132.957 373.455 133.185 374.309 133.191C375.245 133.191 375.609 132.944 375.609 132.567C375.609 131.423 371.384 132.567 371.384 129.798C371.384 128.498 372.58 127.536 374.621 127.536C375.55 127.518 376.47 127.728 377.299 128.147L376.623 129.59C376.015 129.24 375.323 129.06 374.621 129.07C373.711 129.07 373.321 129.356 373.321 129.72C373.321 130.916 377.533 129.72 377.533 132.515C377.533 133.815 376.324 134.725 374.244 134.725C373.181 134.747 372.132 134.487 371.202 133.971Z" fill="white"/>
<path d="M383.267 134.283C382.773 134.593 382.198 134.747 381.616 134.725C381.272 134.774 380.921 134.744 380.591 134.638C380.26 134.531 379.958 134.351 379.707 134.111C379.457 133.87 379.264 133.576 379.144 133.25C379.025 132.924 378.98 132.575 379.016 132.229V129.356H377.937V127.796H379.016V126.106H381.031V127.796H382.773V129.356H381.031V132.203C381.014 132.323 381.026 132.445 381.063 132.56C381.101 132.675 381.163 132.78 381.247 132.868C381.331 132.955 381.433 133.022 381.546 133.065C381.66 133.107 381.781 133.124 381.902 133.113C382.195 133.117 382.483 133.026 382.721 132.853L383.267 134.283Z" fill="white"/>
<path d="M521.151 138.683C525.177 134.657 525.177 128.13 521.151 124.104C517.125 120.078 510.598 120.078 506.572 124.104C502.546 128.13 502.546 134.657 506.572 138.683C510.598 142.709 517.125 142.709 521.151 138.683Z" fill="white"/>
<path opacity="0.2" d="M522.99 126.6L513.89 131.41V121.101C515.763 121.104 517.6 121.618 519.203 122.587C520.807 123.555 522.116 124.943 522.99 126.6Z" fill="black"/>
<path d="M223.223 291.011C223.041 291.387 222.963 291.804 222.996 292.22C223.028 292.636 223.171 293.036 223.409 293.378C223.647 293.721 223.972 293.994 224.351 294.17C224.729 294.345 225.148 294.417 225.563 294.378H287.131C288.155 294.329 289.142 293.985 289.975 293.387C290.807 292.79 291.449 291.965 291.824 291.011L304.824 253.441C304.953 253.091 305.019 252.722 305.019 252.349C305.017 252.028 304.948 251.711 304.816 251.419C304.685 251.126 304.494 250.865 304.255 250.651C304.016 250.436 303.735 250.274 303.43 250.175C303.125 250.076 302.803 250.041 302.484 250.074H240.955C239.932 250.123 238.944 250.467 238.111 251.065C237.279 251.662 236.637 252.487 236.262 253.441L223.223 291.011Z" fill="#263238"/>
<path d="M287.599 292.493C288.101 292.47 288.586 292.301 288.994 292.008C289.403 291.715 289.717 291.31 289.9 290.842L302.9 253.272C302.955 253.122 302.981 252.963 302.978 252.804C302.978 252.284 302.601 251.959 302.003 251.959H240.5C239.998 251.982 239.514 252.151 239.105 252.444C238.697 252.737 238.382 253.142 238.199 253.61L225.199 291.18C225.133 291.332 225.104 291.497 225.115 291.662C225.127 291.828 225.178 291.988 225.264 292.129C225.361 292.254 225.488 292.353 225.634 292.417C225.779 292.481 225.938 292.507 226.096 292.493H287.599Z" fill="#EB6440"/>
<path opacity="0.8" d="M287.599 292.493C288.101 292.47 288.586 292.301 288.994 292.008C289.403 291.715 289.717 291.31 289.9 290.842L302.9 253.272C302.955 253.122 302.981 252.963 302.978 252.804C302.978 252.284 302.601 251.959 302.003 251.959H240.5C239.998 251.982 239.514 252.151 239.105 252.444C238.697 252.737 238.382 253.142 238.199 253.61L225.199 291.18C225.133 291.332 225.104 291.497 225.115 291.662C225.127 291.828 225.178 291.988 225.264 292.129C225.361 292.254 225.488 292.353 225.634 292.417C225.779 292.481 225.938 292.507 226.096 292.493H287.599Z" fill="white"/>
<path d="M196.872 291.596V293.325L209.066 296.458H286.845C287.421 296.458 287.973 296.229 288.38 295.822C288.787 295.415 289.016 294.863 289.016 294.287V291.596H196.872Z" fill="#263238"/>
<path opacity="0.2" d="M261.95 291.596V293.325L274.157 296.458H209.066L196.872 293.325V291.596H261.95Z" fill="white"/>
<g opacity="0.2">
<path d="M299.026 260.786H236.795L239.213 254H301.444L299.026 260.786Z" fill="#EB6440"/>
</g>
<g opacity="0.1">
<path d="M295.906 269.522H233.675C233.493 269.522 233.402 269.379 233.467 269.184C233.503 269.092 233.563 269.012 233.641 268.953C233.719 268.893 233.812 268.856 233.909 268.846H296.153C296.322 268.846 296.413 269.002 296.348 269.184C296.317 269.278 296.258 269.361 296.179 269.421C296.101 269.481 296.005 269.517 295.906 269.522Z" fill="black"/>
</g>
<g opacity="0.1">
<path d="M292.5 279.051H230.269C230.087 279.051 229.996 278.895 230.061 278.713C230.097 278.62 230.159 278.538 230.24 278.479C230.32 278.419 230.416 278.383 230.516 278.375H292.747C292.929 278.375 293.02 278.518 292.955 278.713C292.919 278.806 292.857 278.888 292.776 278.947C292.696 279.007 292.6 279.043 292.5 279.051Z" fill="black"/>
</g>
<g opacity="0.1">
<path d="M289.107 288.58H226.876C226.694 288.58 226.603 288.424 226.668 288.242C226.699 288.146 226.757 288.062 226.836 287.999C226.914 287.937 227.01 287.899 227.11 287.891H289.341C289.523 287.891 289.614 288.047 289.549 288.242C289.515 288.334 289.455 288.415 289.377 288.475C289.299 288.535 289.205 288.571 289.107 288.58Z" fill="black"/>
</g>
<path d="M268.411 473.661H275.184L287.365 304.089H278.369L268.411 473.661Z" fill="#263238"/>
<path opacity="0.2" d="M268.398 473.661H275.184L286.767 312.513L287.365 304.362H278.369L277.888 312.513L268.398 473.661Z" fill="white"/>
<path opacity="0.2" d="M277.888 312.11H286.767L287.365 304.362H278.369L277.888 312.11Z" fill="black"/>
<path d="M218.66 473.661H225.433L226.538 304.089H217.555L218.66 473.661Z" fill="#263238"/>
<path opacity="0.3" d="M217.542 304.362L217.724 331.714L218.647 473.661H225.433L226.369 331.714L226.538 304.362H217.542Z" fill="white"/>
<path opacity="0.2" d="M217.542 304.362L217.724 332.026H226.369L226.538 304.362H217.542Z" fill="black"/>
<path d="M146.692 473.661H153.465L165.646 304.089H156.65L146.692 473.661Z" fill="#263238"/>
<path opacity="0.3" d="M146.692 473.661H153.465L165.061 312.513L165.646 304.362H156.65L156.169 312.513L146.692 473.661Z" fill="white"/>
<path opacity="0.2" d="M156.169 312.11H165.061L165.646 304.362H156.65L156.169 312.11Z" fill="black"/>
<path d="M345.956 473.661H352.729L342.771 304.089H333.775L345.956 473.661Z" fill="#263238"/>
<path opacity="0.3" d="M333.775 304.362L334.373 312.513L345.956 473.661H352.729L343.252 312.513L342.771 304.362H333.775Z" fill="white"/>
<path opacity="0.2" d="M342.771 304.362H333.775L334.373 312.11H343.252L342.771 304.362Z" fill="black"/>
<path d="M347.087 308.34L152.321 308.34C151.952 308.34 151.587 308.267 151.246 308.126C150.906 307.985 150.596 307.778 150.335 307.518C150.075 307.257 149.868 306.947 149.727 306.607C149.586 306.266 149.513 305.901 149.513 305.532V299.851H349.921V305.532C349.921 305.903 349.847 306.27 349.705 306.613C349.562 306.955 349.353 307.266 349.089 307.527C348.826 307.788 348.513 307.994 348.169 308.134C347.826 308.273 347.458 308.343 347.087 308.34Z" fill="#EB6440"/>
<path opacity="0.2" d="M149.527 304.089H349.896V299.838H149.527V304.089Z" fill="black"/>
<path d="M145.327 300.943H354.094C354.728 300.943 355.337 300.691 355.785 300.242C356.234 299.794 356.486 299.185 356.486 298.551C356.486 297.917 356.234 297.308 355.785 296.86C355.337 296.411 354.728 296.159 354.094 296.159H145.327C144.693 296.159 144.084 296.411 143.636 296.86C143.187 297.308 142.935 297.917 142.935 298.551C142.935 299.185 143.187 299.794 143.636 300.242C144.084 300.691 144.693 300.943 145.327 300.943Z" fill="#EB6440"/>
<path d="M347.425 290.14C347.516 292.204 347.139 294.262 346.32 296.159H298.753V295.028H299.715V285.2H298.753V284.069H346.32C347.134 285.986 347.511 288.059 347.425 290.14Z" fill="#263238"/>
<path opacity="0.2" d="M347.425 290.14C347.516 292.204 347.139 294.262 346.32 296.159H298.753V295.028H299.715V285.2H298.753V284.069H346.32C347.134 285.986 347.511 288.059 347.425 290.14Z" fill="white"/>
<path opacity="0.2" d="M321.971 290.14C322.063 292.204 321.685 294.262 320.866 296.159H298.766V295.028H299.728V285.2H298.766V284.069H320.866C321.68 285.986 322.058 288.059 321.971 290.14Z" fill="black"/>
<path opacity="0.8" d="M319.631 290.14C319.706 291.816 319.399 293.488 318.734 295.028H299.715V285.2H318.734C319.394 286.76 319.7 288.447 319.631 290.14Z" fill="white"/>
<path opacity="0.6" d="M339.677 290.14C339.768 292.204 339.39 294.262 338.572 296.159H329.719C330.537 294.262 330.915 292.204 330.824 290.14C330.904 288.072 330.527 286.013 329.719 284.108H338.572C339.38 286.013 339.757 288.072 339.677 290.14Z" fill="white"/>
<path d="M351.663 278.089C351.755 280.153 351.377 282.211 350.558 284.108H302.991V282.977H303.953V273.188H302.991V272.057H350.558C351.364 273.962 351.741 276.022 351.663 278.089Z" fill="#EB6440"/>
<path opacity="0.2" d="M326.209 278.089C326.3 280.153 325.923 282.211 325.104 284.108H303.004V282.977H303.966V273.188H303.004V272.057H325.104C325.91 273.962 326.287 276.022 326.209 278.089Z" fill="black"/>
<path opacity="0.8" d="M323.869 278.089C323.944 279.765 323.638 281.437 322.972 282.977H303.953V273.188H322.972C323.627 274.736 323.933 276.409 323.869 278.089Z" fill="white"/>
<path opacity="0.2" d="M343.915 278.089C344.006 280.153 343.629 282.211 342.81 284.108H333.957C334.776 282.211 335.153 280.153 335.062 278.089C335.14 276.022 334.763 273.962 333.957 272.057H342.81C343.616 273.962 343.993 276.022 343.915 278.089Z" fill="black"/>
<path d="M192.075 444.671L187.889 464.041L177.97 463.872L182.117 444.671H192.075Z" fill="#EBB376"/>
<path opacity="0.2" d="M192.088 444.671L190.008 454.252L180.18 453.589L182.117 444.671H192.088Z" fill="black"/>
<path d="M189.384 463.547H189.592C189.592 463.547 189.813 463.625 189.839 463.651C189.851 463.657 189.865 463.66 189.878 463.66C189.892 463.66 189.905 463.657 189.917 463.651C190.761 463.922 191.634 464.097 192.517 464.171C193.171 464.291 193.845 464.156 194.402 463.794C194.585 463.638 194.718 463.431 194.783 463.2C194.847 462.968 194.842 462.722 194.766 462.494C194.748 462.345 194.693 462.204 194.607 462.081C194.521 461.959 194.406 461.859 194.272 461.792C193.323 461.635 192.348 461.814 191.516 462.299C192.105 461.688 192.451 460.884 192.491 460.037C192.455 459.837 192.353 459.655 192.203 459.519C192.053 459.383 191.862 459.3 191.659 459.283C191.467 459.249 191.27 459.254 191.08 459.299C190.89 459.343 190.711 459.427 190.554 459.543C189.514 460.44 189.345 463.248 189.345 463.443L189.384 463.547ZM190.45 462.975L190.255 463.092C190.193 462.018 190.485 460.954 191.087 460.063C191.154 459.999 191.234 459.95 191.321 459.918C191.409 459.887 191.502 459.874 191.594 459.881H191.711C192.036 459.881 192.114 460.102 192.114 460.245C191.901 461.324 191.312 462.292 190.45 462.975ZM190.593 463.469C191.789 462.806 193.492 462.091 194.129 462.377C194.193 462.409 194.248 462.457 194.289 462.516C194.33 462.575 194.356 462.644 194.363 462.715C194.399 462.859 194.398 463.01 194.359 463.153C194.32 463.297 194.246 463.428 194.142 463.534C193.7 463.95 192.4 463.924 190.593 463.469Z" fill="#EB6440"/>
<path d="M189.15 462.338L178.035 461.649C177.943 461.638 177.85 461.646 177.76 461.671C177.671 461.697 177.587 461.74 177.515 461.798C177.442 461.856 177.382 461.928 177.337 462.01C177.293 462.091 177.265 462.181 177.255 462.273L176.163 471.048C176.138 471.509 176.294 471.961 176.598 472.308C176.901 472.656 177.328 472.87 177.788 472.907C181.688 473.076 183.534 472.972 188.422 473.232C192.765 473.694 197.135 473.85 201.5 473.7C205.647 473.297 205.14 469.202 203.346 469.007C199.108 468.526 193.492 465.406 190.827 463.04C190.361 462.627 189.771 462.381 189.15 462.338Z" fill="#263238"/>
<path d="M250.146 444.671L245.96 464.041L236.028 463.872L240.188 444.671H250.146Z" fill="#EBB376"/>
<path opacity="0.2" d="M250.146 444.671L248.066 454.252L238.238 453.589L240.175 444.671H250.146Z" fill="black"/>
<path d="M247.442 463.547H247.65C247.65 463.547 247.871 463.625 247.91 463.651C247.922 463.657 247.936 463.66 247.949 463.66C247.962 463.66 247.976 463.657 247.988 463.651C248.832 463.921 249.705 464.095 250.588 464.171C251.246 464.294 251.925 464.159 252.486 463.794C252.667 463.637 252.797 463.429 252.859 463.197C252.922 462.966 252.914 462.721 252.837 462.494C252.822 462.344 252.769 462.201 252.682 462.078C252.596 461.955 252.479 461.856 252.343 461.792C251.393 461.635 250.419 461.814 249.587 462.299C250.174 461.686 250.524 460.884 250.575 460.037C250.534 459.837 250.43 459.656 250.277 459.52C250.125 459.384 249.933 459.301 249.73 459.283C249.538 459.249 249.341 459.255 249.151 459.3C248.961 459.345 248.782 459.427 248.625 459.543C247.585 460.44 247.416 463.248 247.416 463.443L247.442 463.547ZM248.508 462.975L248.313 463.092C248.257 462.019 248.549 460.957 249.145 460.063C249.213 460 249.292 459.951 249.38 459.919C249.467 459.888 249.56 459.875 249.652 459.881H249.769C250.094 459.881 250.172 460.102 250.185 460.245C249.96 461.322 249.367 462.288 248.508 462.975ZM248.651 463.469C249.847 462.806 251.55 462.091 252.187 462.377C252.251 462.409 252.306 462.457 252.347 462.516C252.388 462.575 252.413 462.644 252.421 462.715C252.459 462.858 252.459 463.008 252.423 463.151C252.387 463.295 252.314 463.426 252.213 463.534C251.706 463.95 250.406 463.924 248.651 463.469Z" fill="#EB6440"/>
<path d="M247.208 462.338L236.093 461.649C236.001 461.638 235.907 461.646 235.818 461.671C235.728 461.697 235.645 461.74 235.573 461.798C235.5 461.856 235.44 461.928 235.395 462.01C235.351 462.091 235.323 462.181 235.313 462.273L234.221 471.048C234.196 471.509 234.352 471.961 234.655 472.308C234.959 472.656 235.386 472.87 235.846 472.907C239.746 473.076 241.592 472.972 246.48 473.232C250.82 473.68 255.185 473.824 259.545 473.661C263.692 473.258 263.185 469.163 261.404 468.968C257.153 468.487 251.537 465.367 248.885 463.001C248.413 462.603 247.824 462.37 247.208 462.338Z" fill="#263238"/>
<path d="M209.872 407.803C206.094 422.374 201.263 436.651 195.416 450.521L177.294 449.143C177.294 449.143 184.73 420.101 187.421 393.503C189.085 377.084 188.942 363.499 184.132 362.446C181.103 361.77 174.031 361.796 164.957 362.004V328.204C190.411 333.404 215.735 343.284 217.659 351.188C220.35 362.329 215.644 385.885 209.872 407.803Z" fill="#EB6440"/>
<path opacity="0.4" d="M209.872 407.803C206.094 422.374 201.263 436.651 195.416 450.521L177.294 449.143C177.294 449.143 184.73 420.101 187.421 393.503C189.085 377.084 188.942 363.499 184.132 362.446C181.103 361.77 174.031 361.796 164.957 362.004V328.204C190.411 333.404 215.735 343.284 217.659 351.188C220.35 362.329 215.644 385.885 209.872 407.803Z" fill="white"/>
<path opacity="0.2" d="M209.872 407.803C203.112 403.513 195.195 398.482 187.421 393.503C189.085 377.084 188.942 363.499 184.132 362.446C181.103 361.77 174.031 361.796 164.957 362.004V328.204C190.411 333.404 215.735 343.284 217.659 351.188C220.35 362.329 215.644 385.885 209.872 407.803Z" fill="black"/>
<path d="M199.966 324.889L201.565 312.058L149.695 303.517C149.695 303.517 132.73 337.2 141.037 353.606C148.642 368.712 229.71 359.716 242.19 362.433C254.67 365.15 235.3 449.13 235.3 449.13L253.5 450.521C253.5 450.521 281.502 374.965 275.743 351.201C273.208 340.84 230.464 327.112 199.966 324.889Z" fill="#EB6440"/>
<path opacity="0.6" d="M199.966 324.889L201.565 312.058L149.695 303.517C149.695 303.517 132.73 337.2 141.037 353.606C148.642 368.712 229.71 359.716 242.19 362.433C254.67 365.15 235.3 449.13 235.3 449.13L253.5 450.521C253.5 450.521 281.502 374.965 275.743 351.201C273.208 340.84 230.464 327.112 199.966 324.889Z" fill="white"/>
<path d="M228.501 220.512C228.059 221.279 228.111 222.15 228.618 222.436C229.125 222.722 229.918 222.332 230.321 221.552C230.724 220.772 230.711 219.927 230.217 219.628C229.723 219.329 228.982 219.771 228.501 220.512Z" fill="#263238"/>
<path d="M227.682 216.365C227.575 216.313 227.485 216.232 227.422 216.131C227.372 216.003 227.373 215.861 227.424 215.733C227.474 215.606 227.571 215.502 227.695 215.442C228.451 215.097 229.279 214.938 230.109 214.979C230.939 215.02 231.747 215.259 232.466 215.676C232.58 215.749 232.661 215.862 232.692 215.993C232.724 216.124 232.703 216.262 232.635 216.378C232.556 216.492 232.436 216.57 232.3 216.597C232.164 216.624 232.023 216.597 231.907 216.521C231.337 216.201 230.699 216.021 230.046 215.996C229.392 215.971 228.743 216.102 228.15 216.378C228.076 216.413 227.996 216.43 227.914 216.427C227.833 216.425 227.754 216.404 227.682 216.365Z" fill="#263238"/>
<path d="M229.229 219.524C228.802 222.414 228.772 225.349 229.138 228.247C228.393 228.318 227.641 228.226 226.934 227.98C226.228 227.733 225.582 227.336 225.043 226.817L229.229 219.524Z" fill="#DE5753"/>
<path d="M224.575 230.392C224.263 230.769 223.951 231.133 223.613 231.471C221.718 233.46 219.259 234.821 216.567 235.371C215.886 235.513 215.195 235.604 214.5 235.644C212.675 235.766 210.846 235.479 209.146 234.804C207.446 234.13 205.917 233.084 204.672 231.744C203.555 230.523 202.693 229.091 202.137 227.532C199.719 221.032 202.137 215.832 205.66 206.849C206.437 204.726 207.745 202.837 209.459 201.362C211.173 199.887 213.235 198.875 215.451 198.423C217.666 197.971 219.96 198.093 222.115 198.779C224.27 199.464 226.213 200.689 227.76 202.338C234.806 209.696 230.1 223.333 224.575 230.392Z" fill="#E4897B"/>
<path opacity="0.2" d="M216.567 235.345C215.886 235.487 215.195 235.578 214.5 235.618C212.675 235.74 210.846 235.453 209.145 234.778C207.445 234.104 205.917 233.058 204.672 231.718C205.546 230.839 206.529 230.074 207.597 229.443C211.089 230.515 214.201 232.563 216.567 235.345Z" fill="black"/>
<path d="M187.278 235.683C188.162 242.053 202.072 244.432 202.072 244.432C202.072 244.432 208.936 247.552 209.222 244.835C206.375 241.546 206.063 238.673 207.051 236.164C207.703 234.643 208.654 233.268 209.846 232.121C210.488 231.461 211.165 230.836 211.874 230.249L207.623 212.829C204.568 219.446 194.116 234.747 187.278 235.683Z" fill="#E4897B"/>
<path d="M226.967 197.346C226.967 197.346 229.944 196.969 232.167 202.546C234.091 207.213 229.567 208.227 229.762 213.193C229.957 218.159 225.433 220.902 225.433 220.902C225.433 220.902 221.611 224.191 218.374 222.41C218.374 222.41 214.136 224.49 213.018 228.117C211.9 231.744 205.335 225.192 199.42 226.193C199.42 226.193 195.429 222.449 195.715 213.375C195.943 209.434 196.909 205.572 198.562 201.987C199.347 200.09 200.502 198.368 201.959 196.922C203.417 195.475 205.148 194.334 207.051 193.563C213.863 190.521 225.706 192.809 226.967 197.346Z" fill="#263238"/>
<path d="M217.607 219.706C217.406 220.605 217.406 221.538 217.609 222.437C217.811 223.336 218.21 224.179 218.777 224.906C220.22 226.479 222.534 224.477 223.483 221.721C224.289 219.264 224.575 215.416 222.456 214.987C220.337 214.558 218.062 217.054 217.607 219.706Z" fill="#E4897B"/>
<path d="M207.623 238.01C203.794 234.626 199.067 232.422 194.012 231.666C191.804 231.394 189.568 231.871 187.663 233.022C185.759 234.172 184.295 235.929 183.508 238.01L206.83 242.729L207.623 238.01Z" fill="#EB6440"/>
<path d="M203.658 287.228L213.161 288.645C215.323 287.971 217.543 287.497 219.791 287.228C222.235 287.021 224.692 287.021 227.136 287.228C227.136 287.228 231.4 288.84 231.4 293C231.4 293 221.364 295.691 217.516 294.079L203.658 293V287.228Z" fill="#E4897B"/>
<path opacity="0.2" d="M203.658 287.228L213.161 288.645C215.323 287.971 217.543 287.497 219.791 287.228C222.235 287.021 224.692 287.021 227.136 287.228C227.136 287.228 231.4 288.84 231.4 293C231.4 293 221.364 295.691 217.516 294.079L203.658 293V287.228Z" fill="black"/>
<path d="M219.102 241C217.169 246.408 215.436 251.608 213.902 256.6C212.914 259.694 212.017 262.723 211.198 265.7C210.496 268.157 209.898 270.536 209.261 272.85C208.975 273.955 208.689 275.06 208.416 276.152C206.921 282.132 205.712 287.605 204.763 292.415C203.183 299.986 202.011 307.637 201.253 315.334L147.953 308.665C149.799 299.5 151.242 291.505 153.257 282.873C154.362 278.141 155.636 273.227 157.261 267.832C158.405 263.932 159.731 259.837 161.317 255.365C166.66 240.012 171.6 235.761 171.6 235.761C192.062 232.394 219.102 241 219.102 241Z" fill="#EB6440"/>
<path d="M236.834 288.216L246.337 289.646C248.498 288.964 250.717 288.486 252.967 288.216C255.411 288.017 257.868 288.017 260.312 288.216C260.312 288.216 264.615 289.828 264.615 293.949C264.615 293.949 254.579 296.64 250.718 295.028L236.834 293.949V288.216Z" fill="#E4897B"/>
<path d="M175.37 449.988L196.95 451.418L200.122 442.097L176.345 440.979L175.37 449.988Z" fill="#EB6440"/>
<path opacity="0.2" d="M175.37 449.988L196.95 451.418L200.122 442.097L176.345 440.979L175.37 449.988Z" fill="white"/>
<path d="M233.428 449.988L255.008 451.418L258.18 442.097L234.403 440.979L233.428 449.988Z" fill="#EB6440"/>
<path opacity="0.2" d="M233.428 449.988L255.008 451.418L258.18 442.097L234.403 440.979L233.428 449.988Z" fill="white"/>
<path d="M147.784 309.354L171.821 312.513L172.601 308.964L148.525 305.467L147.784 309.354Z" fill="black"/>
<path d="M174.603 308.99L174.304 312.513L196.521 315.568V312.084L174.603 308.99Z" fill="black"/>
<path d="M197.899 312.279V315.568L201.123 315.997V312.812L197.899 312.279Z" fill="black"/>
<path opacity="0.2" d="M213.889 256.6C212.901 259.694 212.004 262.723 211.185 265.7C210.483 268.157 209.885 270.536 209.248 272.85C207.584 263.75 210.548 252.869 210.548 252.869L213.889 256.6Z" fill="black"/>
<path d="M217.49 244.068C221.832 244.939 224.081 275.099 225.043 279.09C225.888 282.574 246.337 289.646 246.337 289.646V294.547C246.337 294.547 223.717 293 218.4 290.816C213.083 288.632 209.872 258.849 209.872 258.849L217.49 244.068Z" fill="#E4897B"/>
<g opacity="0.2">
<path d="M219.102 241C217.169 246.408 215.436 251.608 213.902 256.6C212.914 259.694 212.017 262.723 211.198 265.7C210.496 268.157 209.898 270.536 209.261 272.85C208.975 273.955 208.689 275.06 208.416 276.152C206.921 282.132 205.712 287.605 204.763 292.415C203.183 299.986 202.011 307.637 201.253 315.334L147.953 308.665C149.799 299.5 151.242 291.505 153.257 282.873C154.362 278.141 155.636 273.227 157.261 267.832C158.405 263.932 159.731 259.837 161.317 255.365C166.66 240.012 171.6 235.761 171.6 235.761C192.062 232.394 219.102 241 219.102 241Z" fill="white"/>
</g>
<path d="M219.102 241C223.08 242.3 225.043 268.3 225.043 268.3L210.6 270.211L207.61 259.525C207.61 259.525 208.806 254.481 210.522 249.19C213.018 241.52 219.102 241 219.102 241Z" fill="#EB6440"/>
<path d="M125.931 469.228C125.931 468.322 125.663 467.437 125.159 466.684C124.656 465.932 123.94 465.345 123.103 464.999C122.267 464.653 121.346 464.563 120.458 464.741C119.57 464.919 118.754 465.356 118.115 465.997C117.476 466.638 117.041 467.455 116.866 468.343C116.691 469.232 116.783 470.152 117.131 470.988C117.48 471.824 118.068 472.538 118.822 473.039C119.577 473.54 120.463 473.807 121.368 473.804C121.969 473.804 122.563 473.686 123.117 473.455C123.672 473.225 124.176 472.888 124.599 472.463C125.023 472.038 125.359 471.533 125.588 470.978C125.816 470.423 125.933 469.828 125.931 469.228Z" fill="#263238"/>
<path opacity="0.2" d="M125.931 469.228C125.931 468.322 125.663 467.437 125.159 466.684C124.656 465.932 123.94 465.345 123.103 464.999C122.267 464.653 121.346 464.563 120.458 464.741C119.57 464.919 118.754 465.356 118.115 465.997C117.476 466.638 117.041 467.455 116.866 468.343C116.691 469.232 116.783 470.152 117.131 470.988C117.48 471.824 118.068 472.538 118.822 473.039C119.577 473.54 120.463 473.807 121.368 473.804C121.969 473.804 122.563 473.686 123.117 473.455C123.672 473.225 124.176 472.888 124.599 472.463C125.023 472.038 125.359 471.533 125.588 470.978C125.816 470.423 125.933 469.828 125.931 469.228Z" fill="white"/>
<path d="M235.924 469.228C235.924 468.323 235.656 467.438 235.153 466.686C234.65 465.933 233.936 465.347 233.1 465C232.263 464.654 231.343 464.563 230.456 464.74C229.568 464.917 228.753 465.352 228.113 465.992C227.473 466.632 227.037 467.448 226.86 468.335C226.684 469.223 226.774 470.143 227.121 470.979C227.467 471.815 228.054 472.53 228.806 473.033C229.559 473.536 230.443 473.804 231.348 473.804C231.95 473.806 232.546 473.689 233.102 473.459C233.658 473.23 234.163 472.893 234.588 472.468C235.013 472.042 235.35 471.537 235.58 470.981C235.809 470.425 235.926 469.83 235.924 469.228Z" fill="#263238"/>
<path opacity="0.2" d="M235.924 469.228C235.924 468.323 235.656 467.438 235.153 466.686C234.65 465.933 233.936 465.347 233.1 465C232.263 464.654 231.343 464.563 230.456 464.74C229.568 464.917 228.753 465.352 228.113 465.992C227.473 466.632 227.037 467.448 226.86 468.335C226.684 469.223 226.774 470.143 227.121 470.979C227.467 471.815 228.054 472.53 228.806 473.033C229.559 473.536 230.443 473.804 231.348 473.804C231.95 473.806 232.546 473.689 233.102 473.459C233.658 473.23 234.163 472.893 234.588 472.468C235.013 472.042 235.35 471.537 235.58 470.981C235.809 470.425 235.926 469.83 235.924 469.228Z" fill="white"/>
<path opacity="0.2" d="M123.643 469.228C123.643 468.775 123.509 468.332 123.257 467.956C123.005 467.579 122.647 467.286 122.228 467.113C121.809 466.94 121.348 466.896 120.904 466.985C120.46 467.074 120.052 467.294 119.733 467.615C119.413 467.936 119.197 468.345 119.11 468.79C119.023 469.234 119.07 469.695 119.245 470.113C119.42 470.531 119.716 470.887 120.094 471.137C120.472 471.387 120.915 471.519 121.368 471.516C121.668 471.516 121.965 471.457 122.242 471.342C122.519 471.227 122.77 471.058 122.982 470.845C123.193 470.633 123.36 470.38 123.474 470.103C123.588 469.825 123.645 469.528 123.643 469.228Z" fill="white"/>
<path opacity="0.2" d="M231.348 471.516C232.612 471.516 233.636 470.492 233.636 469.228C233.636 467.965 232.612 466.94 231.348 466.94C230.084 466.94 229.06 467.965 229.06 469.228C229.06 470.492 230.084 471.516 231.348 471.516Z" fill="white"/>
<path d="M180.141 449.182V400.029H172.575V449.182C143.143 449.936 125.255 460.232 121.667 462.481C121.463 462.612 121.295 462.793 121.179 463.007C121.063 463.221 121.003 463.46 121.004 463.703V467.785C121.004 468.168 121.156 468.535 121.427 468.805C121.698 469.076 122.065 469.228 122.447 469.228C122.71 469.236 122.97 469.173 123.199 469.045C123.428 468.917 123.617 468.728 123.747 468.5L125.489 465.432C140.739 460.571 156.612 457.943 172.614 457.632V465.718C172.618 466.212 172.817 466.685 173.167 467.033C173.518 467.382 173.992 467.577 174.486 467.577H178.308C178.803 467.577 179.277 467.382 179.628 467.033C179.978 466.685 180.177 466.212 180.18 465.718V457.632C196.183 457.943 212.056 460.571 227.305 465.432L229.047 468.5C229.177 468.728 229.367 468.917 229.596 469.045C229.825 469.173 230.085 469.236 230.347 469.228C230.73 469.228 231.097 469.076 231.368 468.805C231.638 468.535 231.79 468.168 231.79 467.785V463.703C231.792 463.46 231.732 463.221 231.616 463.007C231.5 462.793 231.332 462.612 231.127 462.481C227.5 460.232 209.573 449.936 180.141 449.182Z" fill="#263238"/>
<path opacity="0.2" d="M180.141 449.182V400.029H172.575V449.182C143.143 449.936 125.255 460.232 121.667 462.481C121.463 462.612 121.295 462.793 121.179 463.007C121.063 463.221 121.003 463.46 121.004 463.703V467.785C121.004 468.168 121.156 468.535 121.427 468.805C121.698 469.076 122.065 469.228 122.447 469.228C122.71 469.236 122.97 469.173 123.199 469.045C123.428 468.917 123.617 468.728 123.747 468.5L125.489 465.432C140.739 460.571 156.612 457.943 172.614 457.632V465.718C172.618 466.212 172.817 466.685 173.167 467.033C173.518 467.382 173.992 467.577 174.486 467.577H178.308C178.803 467.577 179.277 467.382 179.628 467.033C179.978 466.685 180.177 466.212 180.18 465.718V457.632C196.183 457.943 212.056 460.571 227.305 465.432L229.047 468.5C229.177 468.728 229.367 468.917 229.596 469.045C229.825 469.173 230.085 469.236 230.347 469.228C230.73 469.228 231.097 469.076 231.368 468.805C231.638 468.535 231.79 468.168 231.79 467.785V463.703C231.792 463.46 231.732 463.221 231.616 463.007C231.5 462.793 231.332 462.612 231.127 462.481C227.5 460.232 209.573 449.936 180.141 449.182Z" fill="black"/>
<path d="M177.84 464.665H174.876C174.323 464.665 173.875 465.113 173.875 465.666V472.803C173.875 473.356 174.323 473.804 174.876 473.804H177.84C178.393 473.804 178.841 473.356 178.841 472.803V465.666C178.841 465.113 178.393 464.665 177.84 464.665Z" fill="#263238"/>
<path opacity="0.2" d="M177.84 464.665H174.876C174.323 464.665 173.875 465.113 173.875 465.666V472.803C173.875 473.356 174.323 473.804 174.876 473.804H177.84C178.393 473.804 178.841 473.356 178.841 472.803V465.666C178.841 465.113 178.393 464.665 177.84 464.665Z" fill="white"/>
<path d="M126.815 351.643H225.914C228.641 351.643 231.257 352.726 233.185 354.655C235.114 356.583 236.197 359.199 236.197 361.926V368.14H116.519V361.9C116.526 359.175 117.614 356.564 119.545 354.641C121.475 352.718 124.09 351.64 126.815 351.643Z" fill="#EB6440"/>
<path d="M159.198 310.797H225.082C225.89 310.771 226.692 310.934 227.426 311.272C228.159 311.611 228.804 312.115 229.309 312.746C229.813 313.377 230.164 314.117 230.333 314.907C230.502 315.697 230.485 316.515 230.282 317.297L218.4 368.153H215.683L225.719 323.537C225.894 322.761 225.891 321.956 225.71 321.182C225.529 320.408 225.175 319.684 224.675 319.066C224.174 318.449 223.541 317.952 222.821 317.614C222.101 317.276 221.314 317.105 220.519 317.115H160.55L159.198 310.797Z" fill="#263238"/>
<path d="M184.132 369.934V412.938C184.129 413.599 183.865 414.232 183.397 414.699C182.93 415.167 182.297 415.431 181.636 415.434H171.093C170.765 415.436 170.44 415.372 170.136 415.248C169.832 415.123 169.557 414.939 169.324 414.707C169.092 414.475 168.909 414.199 168.784 413.895C168.659 413.592 168.595 413.266 168.597 412.938V369.934H184.132Z" fill="#263238"/>
<path opacity="0.2" d="M184.145 369.934H168.597V387.796H184.145V369.934Z" fill="black"/>
<path d="M239.46 365.501V370.701C239.46 371.391 239.186 372.052 238.699 372.54C238.211 373.027 237.55 373.301 236.86 373.301H115.96C115.271 373.301 114.609 373.027 114.122 372.54C113.634 372.052 113.36 371.391 113.36 370.701V365.501C113.36 364.812 113.634 364.15 114.122 363.663C114.609 363.175 115.271 362.901 115.96 362.901H236.86C237.55 362.901 238.211 363.175 238.699 363.663C239.186 364.15 239.46 364.812 239.46 365.501Z" fill="#263238"/>
<path d="M183.82 368.153H113.256C113.256 368.153 90.8442 330.869 90.8442 269.262V246.629C90.8442 242.147 92.6248 237.848 95.7941 234.679C98.9635 231.51 103.262 229.729 107.744 229.729H137.644C142.041 229.707 146.273 231.408 149.431 234.467C152.59 237.526 154.425 241.701 154.544 246.096C155.311 277.894 159.991 346.638 183.82 368.153Z" fill="#263238"/>
<path opacity="0.2" d="M168.298 368.153H116.454C115.471 368.155 114.506 367.887 113.665 367.378C112.823 366.869 112.138 366.139 111.683 365.267C106.587 355.426 90.8833 320.872 90.8833 269.262V246.629C90.8833 242.147 92.6638 237.848 95.8332 234.679C99.0026 231.51 103.301 229.729 107.783 229.729H133.64C138.032 229.727 142.251 231.434 145.406 234.489C148.56 237.544 150.402 241.707 150.54 246.096C151.32 274.449 155.129 332.338 172.926 359.703C173.498 360.525 173.828 361.489 173.882 362.489C173.935 363.488 173.708 364.483 173.228 365.36C172.747 366.238 172.031 366.964 171.16 367.458C170.289 367.951 169.298 368.192 168.298 368.153Z" fill="white"/>
<path opacity="0.2" d="M239.46 365.501V370.701C239.46 371.391 239.186 372.052 238.699 372.54C238.211 373.027 237.55 373.301 236.86 373.301H182.65C181.71 373.298 180.809 372.923 180.144 372.258C179.48 371.593 179.104 370.692 179.101 369.752V366.463C179.101 365.522 179.475 364.619 180.141 363.954C180.806 363.288 181.709 362.914 182.65 362.914H236.847C237.189 362.912 237.527 362.978 237.843 363.107C238.159 363.236 238.447 363.426 238.689 363.666C238.932 363.907 239.125 364.192 239.257 364.507C239.389 364.822 239.458 365.16 239.46 365.501Z" fill="black"/>
</svg>
